<mxfile host="Electron" modified="2024-03-19T04:37:06.514Z" agent="Mozilla/5.0 (Windows NT 10.0; Win64; x64) AppleWebKit/537.36 (KHTML, like Gecko) draw.io/23.1.5 Chrome/120.0.6099.109 Electron/28.1.0 Safari/537.36" etag="yn1px3XnC8RiS4v72raE" version="23.1.5" type="device">
  <diagram name="Page-1" id="UE46_pInKQ-z-WZN810n">
    <mxGraphModel dx="1839" dy="786" grid="1" gridSize="10" guides="1" tooltips="1" connect="1" arrows="1" fold="1" page="1" pageScale="1" pageWidth="850" pageHeight="1100" math="1" shadow="0">
      <root>
        <mxCell id="0" />
        <mxCell id="1" parent="0" />
        <mxCell id="ayehK-fuNoa_W2m06wCX-4" value="&lt;b&gt;&lt;font style=&quot;font-size: 14px;&quot;&gt;Staging&lt;/font&gt;&lt;/b&gt;" style="text;html=1;strokeColor=#666666;fillColor=#f5f5f5;align=center;verticalAlign=middle;whiteSpace=wrap;rounded=1;fontColor=#333333;strokeWidth=2;" parent="1" vertex="1">
          <mxGeometry x="237.17000000000002" y="1110" width="115" height="40" as="geometry" />
        </mxCell>
        <mxCell id="ayehK-fuNoa_W2m06wCX-5" value="&lt;b&gt;&lt;font style=&quot;font-size: 14px;&quot;&gt;Staging-Purity&lt;/font&gt;&lt;/b&gt;" style="text;html=1;strokeColor=#666666;fillColor=#f5f5f5;align=center;verticalAlign=middle;whiteSpace=wrap;rounded=1;fontColor=#333333;strokeWidth=2;" parent="1" vertex="1">
          <mxGeometry x="413.92" y="1110" width="115" height="40" as="geometry" />
        </mxCell>
        <mxCell id="ayehK-fuNoa_W2m06wCX-6" value="&lt;b&gt;&lt;font style=&quot;font-size: 14px;&quot;&gt;Staging-FGA&lt;/font&gt;&lt;/b&gt;" style="text;html=1;strokeColor=#666666;fillColor=#f5f5f5;align=center;verticalAlign=middle;whiteSpace=wrap;rounded=1;fontColor=#333333;strokeWidth=2;" parent="1" vertex="1">
          <mxGeometry x="598.3199999999999" y="1110" width="115" height="40" as="geometry" />
        </mxCell>
        <mxCell id="ayehK-fuNoa_W2m06wCX-7" value="&lt;b&gt;&lt;font style=&quot;font-size: 14px;&quot;&gt;Staging-Subtyping&lt;/font&gt;&lt;/b&gt;" style="text;html=1;strokeColor=#666666;fillColor=#f5f5f5;align=center;verticalAlign=middle;whiteSpace=wrap;rounded=1;fontColor=#333333;strokeWidth=2;" parent="1" vertex="1">
          <mxGeometry x="787.4999999999999" y="1110" width="115" height="40" as="geometry" />
        </mxCell>
        <mxCell id="ayehK-fuNoa_W2m06wCX-8" value="&lt;b&gt;&lt;font style=&quot;font-size: 14px;&quot;&gt;Staging-Purity-FGA&lt;/font&gt;&lt;/b&gt;" style="text;html=1;strokeColor=#666666;fillColor=#f5f5f5;align=center;verticalAlign=middle;whiteSpace=wrap;rounded=1;fontColor=#333333;strokeWidth=2;" parent="1" vertex="1">
          <mxGeometry x="237.07999999999998" y="1330.25" width="115" height="46" as="geometry" />
        </mxCell>
        <mxCell id="ayehK-fuNoa_W2m06wCX-9" value="&lt;b&gt;&lt;font style=&quot;font-size: 14px;&quot;&gt;Staging-Purity-Subtyping&lt;/font&gt;&lt;/b&gt;" style="text;html=1;strokeColor=#666666;fillColor=#f5f5f5;align=center;verticalAlign=middle;whiteSpace=wrap;rounded=1;fontColor=#333333;strokeWidth=2;" parent="1" vertex="1">
          <mxGeometry x="409.92" y="1327.25" width="115" height="46" as="geometry" />
        </mxCell>
        <mxCell id="ayehK-fuNoa_W2m06wCX-10" value="&lt;b&gt;&lt;font style=&quot;font-size: 14px;&quot;&gt;Staging-FGA-Subtyping&lt;/font&gt;&lt;/b&gt;" style="text;html=1;strokeColor=#666666;fillColor=#f5f5f5;align=center;verticalAlign=middle;whiteSpace=wrap;rounded=1;fontColor=#333333;strokeWidth=2;" parent="1" vertex="1">
          <mxGeometry x="602.5600000000001" y="1327.58" width="115" height="46" as="geometry" />
        </mxCell>
        <mxCell id="ayehK-fuNoa_W2m06wCX-11" value="&lt;font style=&quot;font-size: 14px;&quot;&gt;$$\text{F1-score : } 0.50$$&lt;br&gt;&lt;/font&gt;" style="text;html=1;strokeColor=none;fillColor=none;align=center;verticalAlign=middle;whiteSpace=wrap;rounded=0;" parent="1" vertex="1">
          <mxGeometry x="399.92" y="1300.25" width="143" height="30" as="geometry" />
        </mxCell>
        <mxCell id="ayehK-fuNoa_W2m06wCX-12" value="&lt;font style=&quot;font-size: 14px;&quot;&gt;$$\text{F1-score : } \mathbf{0.55}$$&lt;br&gt;&lt;/font&gt;" style="text;html=1;strokeColor=none;fillColor=none;align=center;verticalAlign=middle;whiteSpace=wrap;rounded=0;" parent="1" vertex="1">
          <mxGeometry x="585" y="1300.25" width="143" height="30" as="geometry" />
        </mxCell>
        <mxCell id="ayehK-fuNoa_W2m06wCX-13" value="&lt;font style=&quot;font-size: 14px;&quot;&gt;$$\text{F1-score : } 0.51$$&lt;br&gt;&lt;/font&gt;" style="text;html=1;strokeColor=none;fillColor=none;align=center;verticalAlign=middle;whiteSpace=wrap;rounded=0;" parent="1" vertex="1">
          <mxGeometry x="773.5" y="1300.25" width="143" height="30" as="geometry" />
        </mxCell>
        <mxCell id="ayehK-fuNoa_W2m06wCX-14" value="&lt;font style=&quot;font-size: 14px;&quot;&gt;$$\text{F1-score : } &lt;br&gt;{0.48}$$&lt;br&gt;&lt;/font&gt;" style="text;html=1;strokeColor=none;fillColor=none;align=center;verticalAlign=middle;whiteSpace=wrap;rounded=0;" parent="1" vertex="1">
          <mxGeometry x="223.08" y="1523" width="143" height="30" as="geometry" />
        </mxCell>
        <mxCell id="ayehK-fuNoa_W2m06wCX-15" value="&lt;font style=&quot;font-size: 14px;&quot;&gt;$$\text{F1-score : } 0.50$$&lt;br&gt;&lt;/font&gt;" style="text;html=1;strokeColor=none;fillColor=none;align=center;verticalAlign=middle;whiteSpace=wrap;rounded=0;" parent="1" vertex="1">
          <mxGeometry x="399.92" y="1523" width="143" height="30" as="geometry" />
        </mxCell>
        <mxCell id="ayehK-fuNoa_W2m06wCX-16" value="&lt;font style=&quot;font-size: 14px;&quot;&gt;$$\text{F1-score : } 0.53$$&lt;br&gt;&lt;/font&gt;" style="text;html=1;strokeColor=none;fillColor=none;align=center;verticalAlign=middle;whiteSpace=wrap;rounded=0;" parent="1" vertex="1">
          <mxGeometry x="584.32" y="1523.33" width="143" height="30" as="geometry" />
        </mxCell>
        <mxCell id="ayehK-fuNoa_W2m06wCX-17" value="&lt;b&gt;&lt;font style=&quot;font-size: 14px;&quot;&gt;Staging-Purity-&lt;br&gt;FGA-Subtyping&lt;br&gt;&lt;/font&gt;&lt;/b&gt;" style="text;html=1;strokeColor=#666666;fillColor=#f5f5f5;align=center;verticalAlign=middle;whiteSpace=wrap;rounded=1;fontColor=#333333;strokeWidth=2;" parent="1" vertex="1">
          <mxGeometry x="779.97" y="1327.25" width="136" height="46" as="geometry" />
        </mxCell>
        <mxCell id="ayehK-fuNoa_W2m06wCX-18" value="&lt;font style=&quot;font-size: 14px;&quot;&gt;$$\text{F1-score : }\mathbf{&lt;br&gt;0.55}$$&lt;br&gt;&lt;/font&gt;" style="text;html=1;strokeColor=none;fillColor=none;align=center;verticalAlign=middle;whiteSpace=wrap;rounded=0;" parent="1" vertex="1">
          <mxGeometry x="773.5" y="1523" width="143" height="30" as="geometry" />
        </mxCell>
        <mxCell id="ayehK-fuNoa_W2m06wCX-19" value="" style="rounded=1;whiteSpace=wrap;html=1;fillColor=#66B2FF;strokeWidth=1.5;" parent="1" vertex="1">
          <mxGeometry x="16.75" y="1321.63" width="176.5" height="227" as="geometry" />
        </mxCell>
        <mxCell id="ayehK-fuNoa_W2m06wCX-20" value="" style="rounded=1;whiteSpace=wrap;html=1;fillColor=#FFFFFF;strokeWidth=1.5;" parent="1" vertex="1">
          <mxGeometry x="23.5" y="1326.88" width="163" height="216.5" as="geometry" />
        </mxCell>
        <mxCell id="ayehK-fuNoa_W2m06wCX-21" value="" style="group" parent="1" vertex="1" connectable="0">
          <mxGeometry x="43.25" y="1384.63" width="165" height="174" as="geometry" />
        </mxCell>
        <mxCell id="ayehK-fuNoa_W2m06wCX-22" value="&lt;font style=&quot;font-size: 16px;&quot;&gt;&lt;b&gt;258&lt;/b&gt;&lt;/font&gt;" style="whiteSpace=wrap;html=1;aspect=fixed;fillColor=#d5e8d4;strokeColor=#356a16;strokeWidth=2;rounded=1;glass=0;absoluteArcSize=0;arcSize=10;" parent="ayehK-fuNoa_W2m06wCX-21" vertex="1">
          <mxGeometry x="32.30769230769231" y="33.08450704225352" width="40.2502984820058" height="40.2502984820058" as="geometry" />
        </mxCell>
        <mxCell id="ayehK-fuNoa_W2m06wCX-23" value="&lt;font style=&quot;font-size: 16px;&quot;&gt;0&lt;/font&gt;" style="whiteSpace=wrap;html=1;aspect=fixed;fillColor=#f8cecc;strokeColor=#D9635E;strokeWidth=2;rounded=1;glass=0;arcSize=10;" parent="ayehK-fuNoa_W2m06wCX-21" vertex="1">
          <mxGeometry x="78.46153846153845" y="33.08450704225352" width="40.2502984820058" height="40.2502984820058" as="geometry" />
        </mxCell>
        <mxCell id="ayehK-fuNoa_W2m06wCX-24" value="&lt;font style=&quot;font-size: 16px;&quot;&gt;0&lt;/font&gt;" style="whiteSpace=wrap;html=1;aspect=fixed;fillColor=#f8cecc;strokeColor=#D9635E;strokeWidth=2;rounded=1;glass=0;arcSize=10;" parent="ayehK-fuNoa_W2m06wCX-21" vertex="1">
          <mxGeometry x="32.30769230769231" y="82.09859154929578" width="40.2502984820058" height="40.2502984820058" as="geometry" />
        </mxCell>
        <mxCell id="ayehK-fuNoa_W2m06wCX-25" value="&lt;font style=&quot;font-size: 16px;&quot;&gt;&lt;b&gt;49&lt;/b&gt;&lt;/font&gt;" style="whiteSpace=wrap;html=1;aspect=fixed;fillColor=#d5e8d4;strokeColor=#356A16;strokeWidth=2;rounded=1;glass=0;arcSize=10;" parent="ayehK-fuNoa_W2m06wCX-21" vertex="1">
          <mxGeometry x="78.46153846153845" y="82.09859154929578" width="40.2502984820058" height="40.2502984820058" as="geometry" />
        </mxCell>
        <mxCell id="ayehK-fuNoa_W2m06wCX-26" value="" style="group;rounded=1;glass=0;arcSize=10;" parent="ayehK-fuNoa_W2m06wCX-21" vertex="1" connectable="0">
          <mxGeometry x="32.30769230769231" width="132.69230769230768" height="22.056338028169016" as="geometry" />
        </mxCell>
        <mxCell id="ayehK-fuNoa_W2m06wCX-27" value="&lt;font style=&quot;font-size: 14px;&quot;&gt;0&lt;/font&gt;" style="text;html=1;strokeColor=#6c8ebf;fillColor=#dae8fc;align=center;verticalAlign=middle;whiteSpace=wrap;rounded=1;strokeWidth=2;glass=0;arcSize=10;" parent="ayehK-fuNoa_W2m06wCX-26" vertex="1">
          <mxGeometry width="40.38461538461539" height="22.056338028169016" as="geometry" />
        </mxCell>
        <mxCell id="ayehK-fuNoa_W2m06wCX-28" value="&lt;font style=&quot;font-size: 14px;&quot;&gt;1&lt;/font&gt;" style="text;html=1;strokeColor=#6c8ebf;fillColor=#dae8fc;align=center;verticalAlign=middle;whiteSpace=wrap;rounded=1;strokeWidth=2;glass=0;arcSize=10;" parent="ayehK-fuNoa_W2m06wCX-26" vertex="1">
          <mxGeometry x="46.15384615384615" width="40.38461538461539" height="22.056338028169016" as="geometry" />
        </mxCell>
        <mxCell id="ayehK-fuNoa_W2m06wCX-29" value="" style="endArrow=none;dashed=1;html=1;rounded=1;endSize=6;strokeWidth=1.5;strokeColor=#4D4D4D;" parent="ayehK-fuNoa_W2m06wCX-21" edge="1">
          <mxGeometry width="50" height="50" relative="1" as="geometry">
            <mxPoint x="26.538461538461537" y="127.43661971830987" as="sourcePoint" />
            <mxPoint x="121.15384615384615" y="28.183098591549296" as="targetPoint" />
            <Array as="points">
              <mxPoint x="26.538461538461537" y="28.183098591549296" />
            </Array>
          </mxGeometry>
        </mxCell>
        <mxCell id="ayehK-fuNoa_W2m06wCX-30" value="&lt;font style=&quot;font-size: 14px;&quot;&gt;1&lt;/font&gt;" style="text;html=1;strokeColor=#6c8ebf;fillColor=#dae8fc;align=center;verticalAlign=middle;whiteSpace=wrap;rounded=1;strokeWidth=2;glass=0;arcSize=10;" parent="ayehK-fuNoa_W2m06wCX-21" vertex="1">
          <mxGeometry y="80.44999999999982" width="20.77" height="41.9" as="geometry" />
        </mxCell>
        <mxCell id="ayehK-fuNoa_W2m06wCX-31" value="&lt;font style=&quot;font-size: 14px;&quot;&gt;0&lt;/font&gt;" style="text;html=1;strokeColor=#6c8ebf;fillColor=#dae8fc;align=center;verticalAlign=middle;whiteSpace=wrap;rounded=1;strokeWidth=2;glass=0;arcSize=10;" parent="ayehK-fuNoa_W2m06wCX-21" vertex="1">
          <mxGeometry y="31.434507042253472" width="20.769230769230766" height="42.887323943661976" as="geometry" />
        </mxCell>
        <mxCell id="ayehK-fuNoa_W2m06wCX-32" value="&lt;font style=&quot;font-size: 14px;&quot;&gt;$$\text{F1-score : } 1$$&lt;br&gt;&lt;/font&gt;" style="text;html=1;strokeColor=none;fillColor=none;align=center;verticalAlign=middle;whiteSpace=wrap;rounded=0;" parent="ayehK-fuNoa_W2m06wCX-21" vertex="1">
          <mxGeometry x="-10" y="134" width="143" height="30" as="geometry" />
        </mxCell>
        <mxCell id="ayehK-fuNoa_W2m06wCX-33" value="&lt;b&gt;&lt;font style=&quot;font-size: 14px;&quot;&gt;IDEAL RESULT&lt;/font&gt;&lt;/b&gt;" style="text;html=1;strokeColor=#666666;fillColor=#f5f5f5;align=center;verticalAlign=middle;whiteSpace=wrap;rounded=1;fontColor=#333333;strokeWidth=2;" parent="1" vertex="1">
          <mxGeometry x="46.25" y="1341.63" width="115" height="30" as="geometry" />
        </mxCell>
        <mxCell id="ayehK-fuNoa_W2m06wCX-34" value="" style="group" parent="1" vertex="1" connectable="0">
          <mxGeometry x="250" y="1166" width="165" height="174" as="geometry" />
        </mxCell>
        <mxCell id="ayehK-fuNoa_W2m06wCX-35" value="&lt;font style=&quot;font-size: 16px;&quot;&gt;&lt;b&gt;241&lt;/b&gt;&lt;/font&gt;" style="whiteSpace=wrap;html=1;aspect=fixed;fillColor=#d5e8d4;strokeColor=#356a16;strokeWidth=2;rounded=1;glass=0;absoluteArcSize=0;arcSize=10;" parent="ayehK-fuNoa_W2m06wCX-34" vertex="1">
          <mxGeometry x="14.727692307692308" y="33.08450704225352" width="40.2502984820058" height="40.2502984820058" as="geometry" />
        </mxCell>
        <mxCell id="ayehK-fuNoa_W2m06wCX-36" value="&lt;font style=&quot;font-size: 16px;&quot;&gt;43&lt;/font&gt;" style="whiteSpace=wrap;html=1;aspect=fixed;fillColor=#f8cecc;strokeColor=#D9635E;strokeWidth=2;rounded=1;glass=0;arcSize=10;" parent="ayehK-fuNoa_W2m06wCX-34" vertex="1">
          <mxGeometry x="60.881538461538454" y="33.08450704225352" width="40.2502984820058" height="40.2502984820058" as="geometry" />
        </mxCell>
        <mxCell id="ayehK-fuNoa_W2m06wCX-37" value="&lt;font style=&quot;font-size: 16px;&quot;&gt;17&lt;/font&gt;" style="whiteSpace=wrap;html=1;aspect=fixed;fillColor=#f8cecc;strokeColor=#D9635E;strokeWidth=2;rounded=1;glass=0;arcSize=10;" parent="ayehK-fuNoa_W2m06wCX-34" vertex="1">
          <mxGeometry x="14.727692307692308" y="82.09859154929578" width="40.2502984820058" height="40.2502984820058" as="geometry" />
        </mxCell>
        <mxCell id="ayehK-fuNoa_W2m06wCX-38" value="&lt;font style=&quot;font-size: 16px;&quot;&gt;&lt;b&gt;6&lt;/b&gt;&lt;/font&gt;" style="whiteSpace=wrap;html=1;aspect=fixed;fillColor=#d5e8d4;strokeColor=#356A16;strokeWidth=2;rounded=1;glass=0;arcSize=10;" parent="ayehK-fuNoa_W2m06wCX-34" vertex="1">
          <mxGeometry x="60.881538461538454" y="82.09859154929578" width="40.2502984820058" height="40.2502984820058" as="geometry" />
        </mxCell>
        <mxCell id="ayehK-fuNoa_W2m06wCX-39" value="" style="group;rounded=1;glass=0;arcSize=10;" parent="ayehK-fuNoa_W2m06wCX-34" vertex="1" connectable="0">
          <mxGeometry x="32.30769230769231" width="132.69230769230768" height="22.056338028169016" as="geometry" />
        </mxCell>
        <mxCell id="ayehK-fuNoa_W2m06wCX-40" value="&lt;font style=&quot;font-size: 14px;&quot;&gt;0&lt;/font&gt;" style="text;html=1;strokeColor=#6c8ebf;fillColor=#dae8fc;align=center;verticalAlign=middle;whiteSpace=wrap;rounded=1;strokeWidth=2;glass=0;arcSize=10;" parent="ayehK-fuNoa_W2m06wCX-39" vertex="1">
          <mxGeometry x="-17.58" width="40.38461538461539" height="22.056338028169016" as="geometry" />
        </mxCell>
        <mxCell id="ayehK-fuNoa_W2m06wCX-41" value="&lt;font style=&quot;font-size: 14px;&quot;&gt;1&lt;/font&gt;" style="text;html=1;strokeColor=#6c8ebf;fillColor=#dae8fc;align=center;verticalAlign=middle;whiteSpace=wrap;rounded=1;strokeWidth=2;glass=0;arcSize=10;" parent="ayehK-fuNoa_W2m06wCX-39" vertex="1">
          <mxGeometry x="28.573846153846155" width="40.38461538461539" height="22.056338028169016" as="geometry" />
        </mxCell>
        <mxCell id="ayehK-fuNoa_W2m06wCX-42" value="" style="endArrow=none;dashed=1;html=1;rounded=1;endSize=6;strokeWidth=1.5;strokeColor=#4D4D4D;" parent="ayehK-fuNoa_W2m06wCX-34" edge="1">
          <mxGeometry width="50" height="50" relative="1" as="geometry">
            <mxPoint x="8.958461538461538" y="127.43661971830987" as="sourcePoint" />
            <mxPoint x="103.57384615384615" y="28.183098591549296" as="targetPoint" />
            <Array as="points">
              <mxPoint x="8.958461538461538" y="28.183098591549296" />
            </Array>
          </mxGeometry>
        </mxCell>
        <mxCell id="ayehK-fuNoa_W2m06wCX-43" value="&lt;font style=&quot;font-size: 14px;&quot;&gt;1&lt;/font&gt;" style="text;html=1;strokeColor=#6c8ebf;fillColor=#dae8fc;align=center;verticalAlign=middle;whiteSpace=wrap;rounded=1;strokeWidth=2;glass=0;arcSize=10;" parent="ayehK-fuNoa_W2m06wCX-34" vertex="1">
          <mxGeometry x="-17.58" y="80.44999999999982" width="20.77" height="41.9" as="geometry" />
        </mxCell>
        <mxCell id="ayehK-fuNoa_W2m06wCX-44" value="&lt;font style=&quot;font-size: 14px;&quot;&gt;0&lt;/font&gt;" style="text;html=1;strokeColor=#6c8ebf;fillColor=#dae8fc;align=center;verticalAlign=middle;whiteSpace=wrap;rounded=1;strokeWidth=2;glass=0;arcSize=10;" parent="ayehK-fuNoa_W2m06wCX-34" vertex="1">
          <mxGeometry x="-17.58" y="31.434507042253472" width="20.769230769230766" height="42.887323943661976" as="geometry" />
        </mxCell>
        <mxCell id="ayehK-fuNoa_W2m06wCX-46" value="" style="endArrow=classic;html=1;strokeWidth=1.5;rounded=1;startArrow=classic;startFill=1;endFill=1;strokeColor=#808080;" parent="1" edge="1">
          <mxGeometry width="50" height="50" relative="1" as="geometry">
            <mxPoint x="53" y="1265" as="sourcePoint" />
            <mxPoint x="173" y="1150" as="targetPoint" />
            <Array as="points">
              <mxPoint x="54" y="1150" />
            </Array>
          </mxGeometry>
        </mxCell>
        <mxCell id="ayehK-fuNoa_W2m06wCX-47" value="&lt;b&gt;&lt;font style=&quot;font-size: 14px;&quot;&gt;True Label&lt;/font&gt;&lt;/b&gt;" style="text;html=1;strokeColor=#FFD966;fillColor=#ffe6cc;align=center;verticalAlign=middle;whiteSpace=wrap;rounded=1;strokeWidth=2;" parent="1" vertex="1">
          <mxGeometry x="55" y="1110" width="115" height="30" as="geometry" />
        </mxCell>
        <mxCell id="ayehK-fuNoa_W2m06wCX-48" value="&lt;b&gt;&lt;font style=&quot;font-size: 14px;&quot;&gt;Prediction&lt;br&gt;&lt;/font&gt;&lt;/b&gt;" style="text;html=1;strokeColor=#FFD966;fillColor=#ffe6cc;align=center;verticalAlign=middle;whiteSpace=wrap;rounded=1;strokeWidth=2;rotation=-90;" parent="1" vertex="1">
          <mxGeometry x="-30" y="1194" width="115" height="30" as="geometry" />
        </mxCell>
        <mxCell id="ayehK-fuNoa_W2m06wCX-49" value="&lt;font style=&quot;font-size: 16px;&quot;&gt;&lt;b&gt;233&lt;/b&gt;&lt;/font&gt;" style="whiteSpace=wrap;html=1;aspect=fixed;fillColor=#d5e8d4;strokeColor=#356a16;strokeWidth=2;rounded=1;glass=0;absoluteArcSize=0;arcSize=10;" parent="1" vertex="1">
          <mxGeometry x="443.2276923076924" y="1199.0845070422536" width="40.2502984820058" height="40.2502984820058" as="geometry" />
        </mxCell>
        <mxCell id="ayehK-fuNoa_W2m06wCX-50" value="&lt;font style=&quot;font-size: 16px;&quot;&gt;40&lt;/font&gt;" style="whiteSpace=wrap;html=1;aspect=fixed;fillColor=#f8cecc;strokeColor=#D9635E;strokeWidth=2;rounded=1;glass=0;arcSize=10;" parent="1" vertex="1">
          <mxGeometry x="489.38153846153847" y="1199.0845070422536" width="40.2502984820058" height="40.2502984820058" as="geometry" />
        </mxCell>
        <mxCell id="ayehK-fuNoa_W2m06wCX-51" value="&lt;font style=&quot;font-size: 16px;&quot;&gt;25&lt;/font&gt;" style="whiteSpace=wrap;html=1;aspect=fixed;fillColor=#f8cecc;strokeColor=#D9635E;strokeWidth=2;rounded=1;glass=0;arcSize=10;" parent="1" vertex="1">
          <mxGeometry x="443.2276923076924" y="1248.0985915492959" width="40.2502984820058" height="40.2502984820058" as="geometry" />
        </mxCell>
        <mxCell id="ayehK-fuNoa_W2m06wCX-52" value="&lt;font style=&quot;font-size: 16px;&quot;&gt;&lt;b&gt;9&lt;/b&gt;&lt;/font&gt;" style="whiteSpace=wrap;html=1;aspect=fixed;fillColor=#d5e8d4;strokeColor=#356A16;strokeWidth=2;rounded=1;glass=0;arcSize=10;" parent="1" vertex="1">
          <mxGeometry x="489.38153846153847" y="1248.0985915492959" width="40.2502984820058" height="40.2502984820058" as="geometry" />
        </mxCell>
        <mxCell id="ayehK-fuNoa_W2m06wCX-53" value="&lt;font style=&quot;font-size: 14px;&quot;&gt;0&lt;/font&gt;" style="text;html=1;strokeColor=#6c8ebf;fillColor=#dae8fc;align=center;verticalAlign=middle;whiteSpace=wrap;rounded=1;strokeWidth=2;glass=0;arcSize=10;" parent="1" vertex="1">
          <mxGeometry x="443.2276923076924" y="1166" width="40.38461538461539" height="22.056338028169016" as="geometry" />
        </mxCell>
        <mxCell id="ayehK-fuNoa_W2m06wCX-54" value="&lt;font style=&quot;font-size: 14px;&quot;&gt;1&lt;/font&gt;" style="text;html=1;strokeColor=#6c8ebf;fillColor=#dae8fc;align=center;verticalAlign=middle;whiteSpace=wrap;rounded=1;strokeWidth=2;glass=0;arcSize=10;" parent="1" vertex="1">
          <mxGeometry x="489.38153846153847" y="1166" width="40.38461538461539" height="22.056338028169016" as="geometry" />
        </mxCell>
        <mxCell id="ayehK-fuNoa_W2m06wCX-55" value="" style="endArrow=none;dashed=1;html=1;rounded=1;endSize=6;strokeWidth=1.5;strokeColor=#4D4D4D;" parent="1" edge="1">
          <mxGeometry width="50" height="50" relative="1" as="geometry">
            <mxPoint x="437.45846153846156" y="1293.4366197183099" as="sourcePoint" />
            <mxPoint x="532.0738461538461" y="1194.1830985915492" as="targetPoint" />
            <Array as="points">
              <mxPoint x="437.45846153846156" y="1194.1830985915492" />
            </Array>
          </mxGeometry>
        </mxCell>
        <mxCell id="ayehK-fuNoa_W2m06wCX-56" value="&lt;font style=&quot;font-size: 14px;&quot;&gt;1&lt;/font&gt;" style="text;html=1;strokeColor=#6c8ebf;fillColor=#dae8fc;align=center;verticalAlign=middle;whiteSpace=wrap;rounded=1;strokeWidth=2;glass=0;arcSize=10;" parent="1" vertex="1">
          <mxGeometry x="410.92" y="1246.4499999999998" width="20.77" height="41.9" as="geometry" />
        </mxCell>
        <mxCell id="ayehK-fuNoa_W2m06wCX-57" value="&lt;font style=&quot;font-size: 14px;&quot;&gt;0&lt;/font&gt;" style="text;html=1;strokeColor=#6c8ebf;fillColor=#dae8fc;align=center;verticalAlign=middle;whiteSpace=wrap;rounded=1;strokeWidth=2;glass=0;arcSize=10;" parent="1" vertex="1">
          <mxGeometry x="410.92" y="1197.4345070422535" width="20.769230769230766" height="42.887323943661976" as="geometry" />
        </mxCell>
        <mxCell id="ayehK-fuNoa_W2m06wCX-58" value="&lt;font style=&quot;font-size: 16px;&quot;&gt;&lt;b&gt;257&lt;/b&gt;&lt;/font&gt;" style="whiteSpace=wrap;html=1;aspect=fixed;fillColor=#d5e8d4;strokeColor=#356a16;strokeWidth=2;rounded=1;glass=0;absoluteArcSize=0;arcSize=10;" parent="1" vertex="1">
          <mxGeometry x="627.5476923076923" y="1199.0845070422536" width="40.2502984820058" height="40.2502984820058" as="geometry" />
        </mxCell>
        <mxCell id="ayehK-fuNoa_W2m06wCX-59" value="&lt;font style=&quot;font-size: 16px;&quot;&gt;47&lt;/font&gt;" style="whiteSpace=wrap;html=1;aspect=fixed;fillColor=#f8cecc;strokeColor=#D9635E;strokeWidth=2;rounded=1;glass=0;arcSize=10;" parent="1" vertex="1">
          <mxGeometry x="673.7015384615383" y="1199.0845070422536" width="40.2502984820058" height="40.2502984820058" as="geometry" />
        </mxCell>
        <mxCell id="ayehK-fuNoa_W2m06wCX-60" value="&lt;font style=&quot;font-size: 16px;&quot;&gt;1&lt;/font&gt;" style="whiteSpace=wrap;html=1;aspect=fixed;fillColor=#f8cecc;strokeColor=#D9635E;strokeWidth=2;rounded=1;glass=0;arcSize=10;" parent="1" vertex="1">
          <mxGeometry x="627.5476923076923" y="1248.0985915492959" width="40.2502984820058" height="40.2502984820058" as="geometry" />
        </mxCell>
        <mxCell id="ayehK-fuNoa_W2m06wCX-61" value="&lt;font style=&quot;font-size: 16px;&quot;&gt;&lt;b&gt;2&lt;/b&gt;&lt;/font&gt;" style="whiteSpace=wrap;html=1;aspect=fixed;fillColor=#d5e8d4;strokeColor=#356A16;strokeWidth=2;rounded=1;glass=0;arcSize=10;" parent="1" vertex="1">
          <mxGeometry x="673.7015384615383" y="1248.0985915492959" width="40.2502984820058" height="40.2502984820058" as="geometry" />
        </mxCell>
        <mxCell id="ayehK-fuNoa_W2m06wCX-62" value="&lt;font style=&quot;font-size: 14px;&quot;&gt;0&lt;/font&gt;" style="text;html=1;strokeColor=#6c8ebf;fillColor=#dae8fc;align=center;verticalAlign=middle;whiteSpace=wrap;rounded=1;strokeWidth=2;glass=0;arcSize=10;" parent="1" vertex="1">
          <mxGeometry x="627.5476923076923" y="1166" width="40.38461538461539" height="22.056338028169016" as="geometry" />
        </mxCell>
        <mxCell id="ayehK-fuNoa_W2m06wCX-63" value="&lt;font style=&quot;font-size: 14px;&quot;&gt;1&lt;/font&gt;" style="text;html=1;strokeColor=#6c8ebf;fillColor=#dae8fc;align=center;verticalAlign=middle;whiteSpace=wrap;rounded=1;strokeWidth=2;glass=0;arcSize=10;" parent="1" vertex="1">
          <mxGeometry x="673.7015384615383" y="1166" width="40.38461538461539" height="22.056338028169016" as="geometry" />
        </mxCell>
        <mxCell id="ayehK-fuNoa_W2m06wCX-64" value="" style="endArrow=none;dashed=1;html=1;rounded=1;endSize=6;strokeWidth=1.5;strokeColor=#4D4D4D;" parent="1" edge="1">
          <mxGeometry width="50" height="50" relative="1" as="geometry">
            <mxPoint x="621.7784615384614" y="1293.4366197183099" as="sourcePoint" />
            <mxPoint x="716.3938461538461" y="1194.1830985915492" as="targetPoint" />
            <Array as="points">
              <mxPoint x="621.7784615384614" y="1194.1830985915492" />
            </Array>
          </mxGeometry>
        </mxCell>
        <mxCell id="ayehK-fuNoa_W2m06wCX-65" value="&lt;font style=&quot;font-size: 14px;&quot;&gt;1&lt;/font&gt;" style="text;html=1;strokeColor=#6c8ebf;fillColor=#dae8fc;align=center;verticalAlign=middle;whiteSpace=wrap;rounded=1;strokeWidth=2;glass=0;arcSize=10;" parent="1" vertex="1">
          <mxGeometry x="595.24" y="1246.4499999999998" width="20.77" height="41.9" as="geometry" />
        </mxCell>
        <mxCell id="ayehK-fuNoa_W2m06wCX-66" value="&lt;font style=&quot;font-size: 14px;&quot;&gt;0&lt;/font&gt;" style="text;html=1;strokeColor=#6c8ebf;fillColor=#dae8fc;align=center;verticalAlign=middle;whiteSpace=wrap;rounded=1;strokeWidth=2;glass=0;arcSize=10;" parent="1" vertex="1">
          <mxGeometry x="595.24" y="1197.4345070422535" width="20.769230769230766" height="42.887323943661976" as="geometry" />
        </mxCell>
        <mxCell id="ayehK-fuNoa_W2m06wCX-67" value="&lt;font style=&quot;font-size: 16px;&quot;&gt;&lt;b&gt;227&lt;/b&gt;&lt;/font&gt;" style="whiteSpace=wrap;html=1;aspect=fixed;fillColor=#d5e8d4;strokeColor=#356a16;strokeWidth=2;rounded=1;glass=0;absoluteArcSize=0;arcSize=10;" parent="1" vertex="1">
          <mxGeometry x="814.1576923076922" y="1199.0845070422536" width="40.2502984820058" height="40.2502984820058" as="geometry" />
        </mxCell>
        <mxCell id="ayehK-fuNoa_W2m06wCX-68" value="&lt;font style=&quot;font-size: 16px;&quot;&gt;42&lt;/font&gt;" style="whiteSpace=wrap;html=1;aspect=fixed;fillColor=#f8cecc;strokeColor=#D9635E;strokeWidth=2;rounded=1;glass=0;arcSize=10;" parent="1" vertex="1">
          <mxGeometry x="860.3115384615384" y="1199.0845070422536" width="40.2502984820058" height="40.2502984820058" as="geometry" />
        </mxCell>
        <mxCell id="ayehK-fuNoa_W2m06wCX-69" value="&lt;font style=&quot;font-size: 16px;&quot;&gt;31&lt;/font&gt;" style="whiteSpace=wrap;html=1;aspect=fixed;fillColor=#f8cecc;strokeColor=#D9635E;strokeWidth=2;rounded=1;glass=0;arcSize=10;" parent="1" vertex="1">
          <mxGeometry x="814.1576923076922" y="1248.0985915492959" width="40.2502984820058" height="40.2502984820058" as="geometry" />
        </mxCell>
        <mxCell id="ayehK-fuNoa_W2m06wCX-70" value="&lt;font style=&quot;font-size: 16px;&quot;&gt;&lt;b&gt;7&lt;/b&gt;&lt;/font&gt;" style="whiteSpace=wrap;html=1;aspect=fixed;fillColor=#d5e8d4;strokeColor=#356A16;strokeWidth=2;rounded=1;glass=0;arcSize=10;" parent="1" vertex="1">
          <mxGeometry x="860.3115384615384" y="1248.0985915492959" width="40.2502984820058" height="40.2502984820058" as="geometry" />
        </mxCell>
        <mxCell id="ayehK-fuNoa_W2m06wCX-71" value="&lt;font style=&quot;font-size: 14px;&quot;&gt;0&lt;/font&gt;" style="text;html=1;strokeColor=#6c8ebf;fillColor=#dae8fc;align=center;verticalAlign=middle;whiteSpace=wrap;rounded=1;strokeWidth=2;glass=0;arcSize=10;" parent="1" vertex="1">
          <mxGeometry x="814.1576923076922" y="1166" width="40.38461538461539" height="22.056338028169016" as="geometry" />
        </mxCell>
        <mxCell id="ayehK-fuNoa_W2m06wCX-72" value="&lt;font style=&quot;font-size: 14px;&quot;&gt;1&lt;/font&gt;" style="text;html=1;strokeColor=#6c8ebf;fillColor=#dae8fc;align=center;verticalAlign=middle;whiteSpace=wrap;rounded=1;strokeWidth=2;glass=0;arcSize=10;" parent="1" vertex="1">
          <mxGeometry x="860.3115384615384" y="1166" width="40.38461538461539" height="22.056338028169016" as="geometry" />
        </mxCell>
        <mxCell id="ayehK-fuNoa_W2m06wCX-73" value="" style="endArrow=none;dashed=1;html=1;rounded=1;endSize=6;strokeWidth=1.5;strokeColor=#4D4D4D;" parent="1" edge="1">
          <mxGeometry width="50" height="50" relative="1" as="geometry">
            <mxPoint x="808.3884615384615" y="1293.4366197183099" as="sourcePoint" />
            <mxPoint x="903.003846153846" y="1194.1830985915492" as="targetPoint" />
            <Array as="points">
              <mxPoint x="808.3884615384615" y="1194.1830985915492" />
            </Array>
          </mxGeometry>
        </mxCell>
        <mxCell id="ayehK-fuNoa_W2m06wCX-74" value="&lt;font style=&quot;font-size: 14px;&quot;&gt;1&lt;/font&gt;" style="text;html=1;strokeColor=#6c8ebf;fillColor=#dae8fc;align=center;verticalAlign=middle;whiteSpace=wrap;rounded=1;strokeWidth=2;glass=0;arcSize=10;" parent="1" vertex="1">
          <mxGeometry x="781.8499999999999" y="1246.4499999999998" width="20.77" height="41.9" as="geometry" />
        </mxCell>
        <mxCell id="ayehK-fuNoa_W2m06wCX-75" value="&lt;font style=&quot;font-size: 14px;&quot;&gt;0&lt;/font&gt;" style="text;html=1;strokeColor=#6c8ebf;fillColor=#dae8fc;align=center;verticalAlign=middle;whiteSpace=wrap;rounded=1;strokeWidth=2;glass=0;arcSize=10;" parent="1" vertex="1">
          <mxGeometry x="781.8499999999999" y="1197.4345070422535" width="20.769230769230766" height="42.887323943661976" as="geometry" />
        </mxCell>
        <mxCell id="ayehK-fuNoa_W2m06wCX-76" value="&lt;font style=&quot;font-size: 16px;&quot;&gt;&lt;b&gt;249&lt;/b&gt;&lt;/font&gt;" style="whiteSpace=wrap;html=1;aspect=fixed;fillColor=#d5e8d4;strokeColor=#356a16;strokeWidth=2;rounded=1;glass=0;absoluteArcSize=0;arcSize=10;" parent="1" vertex="1">
          <mxGeometry x="263.2376923076923" y="1423.3345070422536" width="40.2502984820058" height="40.2502984820058" as="geometry" />
        </mxCell>
        <mxCell id="ayehK-fuNoa_W2m06wCX-77" value="&lt;font style=&quot;font-size: 16px;&quot;&gt;47&lt;/font&gt;" style="whiteSpace=wrap;html=1;aspect=fixed;fillColor=#f8cecc;strokeColor=#D9635E;strokeWidth=2;rounded=1;glass=0;arcSize=10;" parent="1" vertex="1">
          <mxGeometry x="309.39153846153846" y="1423.3345070422536" width="40.2502984820058" height="40.2502984820058" as="geometry" />
        </mxCell>
        <mxCell id="ayehK-fuNoa_W2m06wCX-78" value="&lt;font style=&quot;font-size: 16px;&quot;&gt;9&lt;/font&gt;" style="whiteSpace=wrap;html=1;aspect=fixed;fillColor=#f8cecc;strokeColor=#D9635E;strokeWidth=2;rounded=1;glass=0;arcSize=10;" parent="1" vertex="1">
          <mxGeometry x="263.2376923076923" y="1472.3485915492959" width="40.2502984820058" height="40.2502984820058" as="geometry" />
        </mxCell>
        <mxCell id="ayehK-fuNoa_W2m06wCX-79" value="&lt;font style=&quot;font-size: 16px;&quot;&gt;&lt;b&gt;2&lt;/b&gt;&lt;/font&gt;" style="whiteSpace=wrap;html=1;aspect=fixed;fillColor=#d5e8d4;strokeColor=#356A16;strokeWidth=2;rounded=1;glass=0;arcSize=10;" parent="1" vertex="1">
          <mxGeometry x="309.39153846153846" y="1472.3485915492959" width="40.2502984820058" height="40.2502984820058" as="geometry" />
        </mxCell>
        <mxCell id="ayehK-fuNoa_W2m06wCX-80" value="&lt;font style=&quot;font-size: 14px;&quot;&gt;0&lt;/font&gt;" style="text;html=1;strokeColor=#6c8ebf;fillColor=#dae8fc;align=center;verticalAlign=middle;whiteSpace=wrap;rounded=1;strokeWidth=2;glass=0;arcSize=10;" parent="1" vertex="1">
          <mxGeometry x="263.2376923076923" y="1390.25" width="40.38461538461539" height="22.056338028169016" as="geometry" />
        </mxCell>
        <mxCell id="ayehK-fuNoa_W2m06wCX-81" value="&lt;font style=&quot;font-size: 14px;&quot;&gt;1&lt;/font&gt;" style="text;html=1;strokeColor=#6c8ebf;fillColor=#dae8fc;align=center;verticalAlign=middle;whiteSpace=wrap;rounded=1;strokeWidth=2;glass=0;arcSize=10;" parent="1" vertex="1">
          <mxGeometry x="309.39153846153846" y="1390.25" width="40.38461538461539" height="22.056338028169016" as="geometry" />
        </mxCell>
        <mxCell id="ayehK-fuNoa_W2m06wCX-82" value="" style="endArrow=none;dashed=1;html=1;rounded=1;endSize=6;strokeWidth=1.5;strokeColor=#4D4D4D;" parent="1" edge="1">
          <mxGeometry width="50" height="50" relative="1" as="geometry">
            <mxPoint x="257.5584615384616" y="1516.6866197183099" as="sourcePoint" />
            <mxPoint x="352.17384615384617" y="1417.4330985915492" as="targetPoint" />
            <Array as="points">
              <mxPoint x="257.5584615384616" y="1417.4330985915492" />
            </Array>
          </mxGeometry>
        </mxCell>
        <mxCell id="ayehK-fuNoa_W2m06wCX-83" value="&lt;font style=&quot;font-size: 14px;&quot;&gt;1&lt;/font&gt;" style="text;html=1;strokeColor=#6c8ebf;fillColor=#dae8fc;align=center;verticalAlign=middle;whiteSpace=wrap;rounded=1;strokeWidth=2;glass=0;arcSize=10;" parent="1" vertex="1">
          <mxGeometry x="230.93" y="1470.6999999999998" width="20.77" height="41.9" as="geometry" />
        </mxCell>
        <mxCell id="ayehK-fuNoa_W2m06wCX-84" value="&lt;font style=&quot;font-size: 14px;&quot;&gt;0&lt;/font&gt;" style="text;html=1;strokeColor=#6c8ebf;fillColor=#dae8fc;align=center;verticalAlign=middle;whiteSpace=wrap;rounded=1;strokeWidth=2;glass=0;arcSize=10;" parent="1" vertex="1">
          <mxGeometry x="230.93" y="1421.6845070422535" width="20.769230769230766" height="42.887323943661976" as="geometry" />
        </mxCell>
        <mxCell id="ayehK-fuNoa_W2m06wCX-85" value="&lt;span style=&quot;font-size: 16px;&quot;&gt;&lt;b&gt;243&lt;/b&gt;&lt;/span&gt;" style="whiteSpace=wrap;html=1;aspect=fixed;fillColor=#d5e8d4;strokeColor=#356a16;strokeWidth=2;rounded=1;glass=0;absoluteArcSize=0;arcSize=10;" parent="1" vertex="1">
          <mxGeometry x="436.0776923076924" y="1420.3345070422536" width="40.2502984820058" height="40.2502984820058" as="geometry" />
        </mxCell>
        <mxCell id="ayehK-fuNoa_W2m06wCX-86" value="&lt;font style=&quot;font-size: 16px;&quot;&gt;45&lt;/font&gt;" style="whiteSpace=wrap;html=1;aspect=fixed;fillColor=#f8cecc;strokeColor=#D9635E;strokeWidth=2;rounded=1;glass=0;arcSize=10;" parent="1" vertex="1">
          <mxGeometry x="482.2315384615386" y="1420.3345070422536" width="40.2502984820058" height="40.2502984820058" as="geometry" />
        </mxCell>
        <mxCell id="ayehK-fuNoa_W2m06wCX-87" value="&lt;font style=&quot;font-size: 16px;&quot;&gt;15&lt;/font&gt;" style="whiteSpace=wrap;html=1;aspect=fixed;fillColor=#f8cecc;strokeColor=#D9635E;strokeWidth=2;rounded=1;glass=0;arcSize=10;" parent="1" vertex="1">
          <mxGeometry x="436.0776923076924" y="1469.3485915492959" width="40.2502984820058" height="40.2502984820058" as="geometry" />
        </mxCell>
        <mxCell id="ayehK-fuNoa_W2m06wCX-88" value="&lt;font style=&quot;font-size: 16px;&quot;&gt;&lt;b&gt;4&lt;/b&gt;&lt;/font&gt;" style="whiteSpace=wrap;html=1;aspect=fixed;fillColor=#d5e8d4;strokeColor=#356A16;strokeWidth=2;rounded=1;glass=0;arcSize=10;" parent="1" vertex="1">
          <mxGeometry x="482.2315384615386" y="1469.3485915492959" width="40.2502984820058" height="40.2502984820058" as="geometry" />
        </mxCell>
        <mxCell id="ayehK-fuNoa_W2m06wCX-89" value="&lt;font style=&quot;font-size: 14px;&quot;&gt;0&lt;/font&gt;" style="text;html=1;strokeColor=#6c8ebf;fillColor=#dae8fc;align=center;verticalAlign=middle;whiteSpace=wrap;rounded=1;strokeWidth=2;glass=0;arcSize=10;" parent="1" vertex="1">
          <mxGeometry x="436.0776923076924" y="1387.25" width="40.38461538461539" height="22.056338028169016" as="geometry" />
        </mxCell>
        <mxCell id="ayehK-fuNoa_W2m06wCX-90" value="&lt;font style=&quot;font-size: 14px;&quot;&gt;1&lt;/font&gt;" style="text;html=1;strokeColor=#6c8ebf;fillColor=#dae8fc;align=center;verticalAlign=middle;whiteSpace=wrap;rounded=1;strokeWidth=2;glass=0;arcSize=10;" parent="1" vertex="1">
          <mxGeometry x="482.2315384615386" y="1387.25" width="40.38461538461539" height="22.056338028169016" as="geometry" />
        </mxCell>
        <mxCell id="ayehK-fuNoa_W2m06wCX-91" value="" style="endArrow=none;dashed=1;html=1;rounded=1;endSize=6;strokeWidth=1.5;strokeColor=#4D4D4D;" parent="1" edge="1">
          <mxGeometry width="50" height="50" relative="1" as="geometry">
            <mxPoint x="430.3084615384615" y="1514.6866197183099" as="sourcePoint" />
            <mxPoint x="524.9238461538462" y="1415.4330985915492" as="targetPoint" />
            <Array as="points">
              <mxPoint x="430.3084615384615" y="1415.4330985915492" />
            </Array>
          </mxGeometry>
        </mxCell>
        <mxCell id="ayehK-fuNoa_W2m06wCX-92" value="&lt;font style=&quot;font-size: 14px;&quot;&gt;1&lt;/font&gt;" style="text;html=1;strokeColor=#6c8ebf;fillColor=#dae8fc;align=center;verticalAlign=middle;whiteSpace=wrap;rounded=1;strokeWidth=2;glass=0;arcSize=10;" parent="1" vertex="1">
          <mxGeometry x="403.77000000000004" y="1467.6999999999998" width="20.77" height="41.9" as="geometry" />
        </mxCell>
        <mxCell id="ayehK-fuNoa_W2m06wCX-93" value="&lt;font style=&quot;font-size: 14px;&quot;&gt;0&lt;/font&gt;" style="text;html=1;strokeColor=#6c8ebf;fillColor=#dae8fc;align=center;verticalAlign=middle;whiteSpace=wrap;rounded=1;strokeWidth=2;glass=0;arcSize=10;" parent="1" vertex="1">
          <mxGeometry x="403.77000000000004" y="1418.6845070422535" width="20.769230769230766" height="42.887323943661976" as="geometry" />
        </mxCell>
        <mxCell id="ayehK-fuNoa_W2m06wCX-94" value="&lt;font style=&quot;font-size: 16px;&quot;&gt;&lt;b&gt;229&lt;/b&gt;&lt;/font&gt;" style="whiteSpace=wrap;html=1;aspect=fixed;fillColor=#d5e8d4;strokeColor=#356a16;strokeWidth=2;rounded=1;glass=0;absoluteArcSize=0;arcSize=10;" parent="1" vertex="1">
          <mxGeometry x="629.4776923076925" y="1420.6645070422535" width="40.2502984820058" height="40.2502984820058" as="geometry" />
        </mxCell>
        <mxCell id="ayehK-fuNoa_W2m06wCX-95" value="&lt;font style=&quot;font-size: 16px;&quot;&gt;41&lt;/font&gt;" style="whiteSpace=wrap;html=1;aspect=fixed;fillColor=#f8cecc;strokeColor=#D9635E;strokeWidth=2;rounded=1;glass=0;arcSize=10;" parent="1" vertex="1">
          <mxGeometry x="675.6315384615386" y="1420.6645070422535" width="40.2502984820058" height="40.2502984820058" as="geometry" />
        </mxCell>
        <mxCell id="ayehK-fuNoa_W2m06wCX-96" value="&lt;font style=&quot;font-size: 16px;&quot;&gt;29&lt;/font&gt;" style="whiteSpace=wrap;html=1;aspect=fixed;fillColor=#f8cecc;strokeColor=#D9635E;strokeWidth=2;rounded=1;glass=0;arcSize=10;" parent="1" vertex="1">
          <mxGeometry x="629.48" y="1469.6799999999998" width="40.01" height="40.01" as="geometry" />
        </mxCell>
        <mxCell id="ayehK-fuNoa_W2m06wCX-97" value="&lt;font style=&quot;font-size: 16px;&quot;&gt;&lt;b&gt;8&lt;/b&gt;&lt;/font&gt;" style="whiteSpace=wrap;html=1;aspect=fixed;fillColor=#d5e8d4;strokeColor=#356A16;strokeWidth=2;rounded=1;glass=0;arcSize=10;" parent="1" vertex="1">
          <mxGeometry x="675.6315384615386" y="1469.6785915492958" width="40.2502984820058" height="40.2502984820058" as="geometry" />
        </mxCell>
        <mxCell id="ayehK-fuNoa_W2m06wCX-98" value="&lt;font style=&quot;font-size: 14px;&quot;&gt;0&lt;/font&gt;" style="text;html=1;strokeColor=#6c8ebf;fillColor=#dae8fc;align=center;verticalAlign=middle;whiteSpace=wrap;rounded=1;strokeWidth=2;glass=0;arcSize=10;" parent="1" vertex="1">
          <mxGeometry x="629.4776923076925" y="1387.58" width="40.38461538461539" height="22.056338028169016" as="geometry" />
        </mxCell>
        <mxCell id="ayehK-fuNoa_W2m06wCX-99" value="&lt;font style=&quot;font-size: 14px;&quot;&gt;1&lt;/font&gt;" style="text;html=1;strokeColor=#6c8ebf;fillColor=#dae8fc;align=center;verticalAlign=middle;whiteSpace=wrap;rounded=1;strokeWidth=2;glass=0;arcSize=10;" parent="1" vertex="1">
          <mxGeometry x="675.6315384615386" y="1387.58" width="40.38461538461539" height="22.056338028169016" as="geometry" />
        </mxCell>
        <mxCell id="ayehK-fuNoa_W2m06wCX-100" value="" style="endArrow=none;dashed=1;html=1;rounded=1;endSize=6;strokeWidth=1.5;strokeColor=#4D4D4D;" parent="1" edge="1">
          <mxGeometry width="50" height="50" relative="1" as="geometry">
            <mxPoint x="623.7084615384615" y="1515.0166197183098" as="sourcePoint" />
            <mxPoint x="718.3238461538463" y="1415.7630985915491" as="targetPoint" />
            <Array as="points">
              <mxPoint x="623.7084615384615" y="1415.7630985915491" />
            </Array>
          </mxGeometry>
        </mxCell>
        <mxCell id="ayehK-fuNoa_W2m06wCX-101" value="&lt;font style=&quot;font-size: 14px;&quot;&gt;1&lt;/font&gt;" style="text;html=1;strokeColor=#6c8ebf;fillColor=#dae8fc;align=center;verticalAlign=middle;whiteSpace=wrap;rounded=1;strokeWidth=2;glass=0;arcSize=10;" parent="1" vertex="1">
          <mxGeometry x="597.1700000000001" y="1468.0299999999997" width="20.77" height="41.9" as="geometry" />
        </mxCell>
        <mxCell id="ayehK-fuNoa_W2m06wCX-102" value="&lt;font style=&quot;font-size: 14px;&quot;&gt;0&lt;/font&gt;" style="text;html=1;strokeColor=#6c8ebf;fillColor=#dae8fc;align=center;verticalAlign=middle;whiteSpace=wrap;rounded=1;strokeWidth=2;glass=0;arcSize=10;" parent="1" vertex="1">
          <mxGeometry x="597.1700000000001" y="1419.0145070422534" width="20.769230769230766" height="42.887323943661976" as="geometry" />
        </mxCell>
        <mxCell id="ayehK-fuNoa_W2m06wCX-103" value="&lt;font style=&quot;font-size: 16px;&quot;&gt;&lt;b&gt;239&lt;/b&gt;&lt;/font&gt;" style="whiteSpace=wrap;html=1;aspect=fixed;fillColor=#d5e8d4;strokeColor=#356a16;strokeWidth=2;rounded=1;glass=0;absoluteArcSize=0;arcSize=10;" parent="1" vertex="1">
          <mxGeometry x="811.5476923076924" y="1420.3345070422536" width="40.2502984820058" height="40.2502984820058" as="geometry" />
        </mxCell>
        <mxCell id="ayehK-fuNoa_W2m06wCX-104" value="&lt;font style=&quot;font-size: 16px;&quot;&gt;41&lt;/font&gt;" style="whiteSpace=wrap;html=1;aspect=fixed;fillColor=#f8cecc;strokeColor=#D9635E;strokeWidth=2;rounded=1;glass=0;arcSize=10;" parent="1" vertex="1">
          <mxGeometry x="857.7015384615386" y="1420.3345070422536" width="40.2502984820058" height="40.2502984820058" as="geometry" />
        </mxCell>
        <mxCell id="ayehK-fuNoa_W2m06wCX-105" value="&lt;font style=&quot;font-size: 16px;&quot;&gt;19&lt;/font&gt;" style="whiteSpace=wrap;html=1;aspect=fixed;fillColor=#f8cecc;strokeColor=#D9635E;strokeWidth=2;rounded=1;glass=0;arcSize=10;" parent="1" vertex="1">
          <mxGeometry x="811.5476923076924" y="1469.3485915492959" width="40.2502984820058" height="40.2502984820058" as="geometry" />
        </mxCell>
        <mxCell id="ayehK-fuNoa_W2m06wCX-106" value="&lt;font style=&quot;font-size: 16px;&quot;&gt;&lt;b&gt;8&lt;/b&gt;&lt;/font&gt;" style="whiteSpace=wrap;html=1;aspect=fixed;fillColor=#d5e8d4;strokeColor=#356A16;strokeWidth=2;rounded=1;glass=0;arcSize=10;" parent="1" vertex="1">
          <mxGeometry x="857.7015384615386" y="1469.3485915492959" width="40.2502984820058" height="40.2502984820058" as="geometry" />
        </mxCell>
        <mxCell id="ayehK-fuNoa_W2m06wCX-107" value="&lt;font style=&quot;font-size: 14px;&quot;&gt;0&lt;/font&gt;" style="text;html=1;strokeColor=#6c8ebf;fillColor=#dae8fc;align=center;verticalAlign=middle;whiteSpace=wrap;rounded=1;strokeWidth=2;glass=0;arcSize=10;" parent="1" vertex="1">
          <mxGeometry x="811.5476923076924" y="1387.25" width="40.38461538461539" height="22.056338028169016" as="geometry" />
        </mxCell>
        <mxCell id="ayehK-fuNoa_W2m06wCX-108" value="&lt;font style=&quot;font-size: 14px;&quot;&gt;1&lt;/font&gt;" style="text;html=1;strokeColor=#6c8ebf;fillColor=#dae8fc;align=center;verticalAlign=middle;whiteSpace=wrap;rounded=1;strokeWidth=2;glass=0;arcSize=10;" parent="1" vertex="1">
          <mxGeometry x="857.7015384615386" y="1387.25" width="40.38461538461539" height="22.056338028169016" as="geometry" />
        </mxCell>
        <mxCell id="ayehK-fuNoa_W2m06wCX-109" value="" style="endArrow=none;dashed=1;html=1;rounded=1;endSize=6;strokeWidth=1.5;strokeColor=#4D4D4D;" parent="1" edge="1">
          <mxGeometry width="50" height="50" relative="1" as="geometry">
            <mxPoint x="805.7784615384614" y="1514.6866197183099" as="sourcePoint" />
            <mxPoint x="900.3938461538462" y="1415.4330985915492" as="targetPoint" />
            <Array as="points">
              <mxPoint x="805.7784615384614" y="1415.4330985915492" />
            </Array>
          </mxGeometry>
        </mxCell>
        <mxCell id="ayehK-fuNoa_W2m06wCX-110" value="&lt;font style=&quot;font-size: 14px;&quot;&gt;1&lt;/font&gt;" style="text;html=1;strokeColor=#6c8ebf;fillColor=#dae8fc;align=center;verticalAlign=middle;whiteSpace=wrap;rounded=1;strokeWidth=2;glass=0;arcSize=10;" parent="1" vertex="1">
          <mxGeometry x="779.24" y="1467.6999999999998" width="20.77" height="41.9" as="geometry" />
        </mxCell>
        <mxCell id="ayehK-fuNoa_W2m06wCX-111" value="&lt;font style=&quot;font-size: 14px;&quot;&gt;0&lt;/font&gt;" style="text;html=1;strokeColor=#6c8ebf;fillColor=#dae8fc;align=center;verticalAlign=middle;whiteSpace=wrap;rounded=1;strokeWidth=2;glass=0;arcSize=10;" parent="1" vertex="1">
          <mxGeometry x="779.24" y="1418.6845070422535" width="20.769230769230766" height="42.887323943661976" as="geometry" />
        </mxCell>
        <mxCell id="ayehK-fuNoa_W2m06wCX-112" value="&lt;b&gt;&lt;font style=&quot;font-size: 14px;&quot;&gt;Early Stage: 0&lt;span style=&quot;white-space: pre;&quot;&gt;&#x9;&lt;/span&gt;Late Stage: 1&lt;/font&gt;&lt;/b&gt;" style="text;html=1;strokeColor=#d6b656;fillColor=#fff2cc;align=center;verticalAlign=middle;whiteSpace=wrap;rounded=1;strokeWidth=2;" parent="1" vertex="1">
          <mxGeometry x="403.77" y="1558.63" width="256" height="30" as="geometry" />
        </mxCell>
        <mxCell id="ayehK-fuNoa_W2m06wCX-45" value="&lt;font style=&quot;font-size: 14px;&quot;&gt;$$\text{F1-score : } 0.53$$&lt;br&gt;&lt;/font&gt;" style="text;html=1;strokeColor=none;fillColor=none;align=center;verticalAlign=middle;whiteSpace=wrap;rounded=0;" parent="1" vertex="1">
          <mxGeometry x="220" y="1300" width="143" height="30" as="geometry" />
        </mxCell>
        <mxCell id="ayehK-fuNoa_W2m06wCX-113" value="" style="rounded=1;whiteSpace=wrap;html=1;fillColor=#66B2FF;strokeWidth=1.5;" parent="1" vertex="1">
          <mxGeometry x="34.5" y="252.5" width="176" height="240" as="geometry" />
        </mxCell>
        <mxCell id="ayehK-fuNoa_W2m06wCX-114" value="" style="rounded=1;whiteSpace=wrap;html=1;fillColor=#FFFFFF;strokeWidth=1.5;" parent="1" vertex="1">
          <mxGeometry x="38.5" y="256.5" width="168" height="232" as="geometry" />
        </mxCell>
        <mxCell id="ayehK-fuNoa_W2m06wCX-115" value="&lt;font style=&quot;font-size: 16px;&quot;&gt;&lt;b&gt;86&lt;/b&gt;&lt;/font&gt;" style="whiteSpace=wrap;html=1;aspect=fixed;fillColor=#d5e8d4;strokeColor=#356a16;strokeWidth=2;rounded=1;glass=0;absoluteArcSize=0;arcSize=10;" parent="1" vertex="1">
          <mxGeometry x="471" y="99.5" width="35" height="35" as="geometry" />
        </mxCell>
        <mxCell id="ayehK-fuNoa_W2m06wCX-116" value="&lt;font style=&quot;font-size: 16px;&quot;&gt;5&lt;/font&gt;" style="whiteSpace=wrap;html=1;aspect=fixed;fillColor=#f8cecc;strokeColor=#D9635E;strokeWidth=2;rounded=1;glass=0;arcSize=10;" parent="1" vertex="1">
          <mxGeometry x="511" y="99.5" width="35" height="35" as="geometry" />
        </mxCell>
        <mxCell id="ayehK-fuNoa_W2m06wCX-117" value="&lt;font style=&quot;font-size: 16px;&quot;&gt;1&lt;/font&gt;" style="whiteSpace=wrap;html=1;aspect=fixed;fillColor=#f8cecc;strokeColor=#D9635E;strokeWidth=2;rounded=1;glass=0;arcSize=10;" parent="1" vertex="1">
          <mxGeometry x="551" y="99.5" width="35" height="35" as="geometry" />
        </mxCell>
        <mxCell id="ayehK-fuNoa_W2m06wCX-118" value="&lt;font style=&quot;font-size: 16px;&quot;&gt;8&lt;/font&gt;" style="whiteSpace=wrap;html=1;aspect=fixed;fillColor=#f8cecc;strokeColor=#D9635E;strokeWidth=2;rounded=1;glass=0;arcSize=10;" parent="1" vertex="1">
          <mxGeometry x="471" y="139.5" width="35" height="35" as="geometry" />
        </mxCell>
        <mxCell id="ayehK-fuNoa_W2m06wCX-119" value="&lt;font style=&quot;font-size: 16px;&quot;&gt;&lt;b&gt;120&lt;/b&gt;&lt;/font&gt;" style="whiteSpace=wrap;html=1;aspect=fixed;fillColor=#d5e8d4;strokeColor=#356A16;strokeWidth=2;rounded=1;glass=0;arcSize=10;" parent="1" vertex="1">
          <mxGeometry x="511" y="139.5" width="35" height="35" as="geometry" />
        </mxCell>
        <mxCell id="ayehK-fuNoa_W2m06wCX-120" value="&lt;font style=&quot;font-size: 16px;&quot;&gt;18&lt;/font&gt;" style="whiteSpace=wrap;html=1;aspect=fixed;fillColor=#f8cecc;strokeColor=#D9635E;strokeWidth=2;rounded=1;glass=0;arcSize=10;" parent="1" vertex="1">
          <mxGeometry x="551" y="139.5" width="35" height="35" as="geometry" />
        </mxCell>
        <mxCell id="ayehK-fuNoa_W2m06wCX-121" value="&lt;font style=&quot;font-size: 16px;&quot;&gt;5&lt;/font&gt;" style="whiteSpace=wrap;html=1;aspect=fixed;fillColor=#f8cecc;strokeColor=#D9635E;strokeWidth=2;rounded=1;glass=0;arcSize=10;" parent="1" vertex="1">
          <mxGeometry x="471" y="179.5" width="35" height="35" as="geometry" />
        </mxCell>
        <mxCell id="ayehK-fuNoa_W2m06wCX-122" value="&lt;font style=&quot;font-size: 16px;&quot;&gt;43&lt;/font&gt;" style="whiteSpace=wrap;html=1;aspect=fixed;fillColor=#f8cecc;strokeColor=#D9635E;strokeWidth=2;rounded=1;glass=0;arcSize=10;" parent="1" vertex="1">
          <mxGeometry x="511" y="179.5" width="35" height="35" as="geometry" />
        </mxCell>
        <mxCell id="ayehK-fuNoa_W2m06wCX-123" value="&lt;font style=&quot;font-size: 16px;&quot;&gt;&lt;b&gt;118&lt;/b&gt;&lt;/font&gt;" style="whiteSpace=wrap;html=1;aspect=fixed;strokeWidth=2;fillColor=#d5e8d4;strokeColor=#356A16;rounded=1;glass=0;arcSize=10;" parent="1" vertex="1">
          <mxGeometry x="551" y="179.5" width="35" height="35" as="geometry" />
        </mxCell>
        <mxCell id="ayehK-fuNoa_W2m06wCX-124" value="" style="group;rounded=1;glass=0;arcSize=10;" parent="1" vertex="1" connectable="0">
          <mxGeometry x="471" y="72.5" width="115" height="18" as="geometry" />
        </mxCell>
        <mxCell id="ayehK-fuNoa_W2m06wCX-125" value="&lt;font style=&quot;font-size: 14px;&quot;&gt;0&lt;/font&gt;" style="text;html=1;strokeColor=#6c8ebf;fillColor=#dae8fc;align=center;verticalAlign=middle;whiteSpace=wrap;rounded=1;strokeWidth=2;glass=0;arcSize=10;" parent="ayehK-fuNoa_W2m06wCX-124" vertex="1">
          <mxGeometry width="35" height="18" as="geometry" />
        </mxCell>
        <mxCell id="ayehK-fuNoa_W2m06wCX-126" value="&lt;font style=&quot;font-size: 14px;&quot;&gt;1&lt;/font&gt;" style="text;html=1;strokeColor=#6c8ebf;fillColor=#dae8fc;align=center;verticalAlign=middle;whiteSpace=wrap;rounded=1;strokeWidth=2;glass=0;arcSize=10;" parent="ayehK-fuNoa_W2m06wCX-124" vertex="1">
          <mxGeometry x="40" width="35" height="18" as="geometry" />
        </mxCell>
        <mxCell id="ayehK-fuNoa_W2m06wCX-127" value="&lt;font style=&quot;font-size: 14px;&quot;&gt;2&lt;/font&gt;" style="text;html=1;strokeColor=#6c8ebf;fillColor=#dae8fc;align=center;verticalAlign=middle;whiteSpace=wrap;rounded=1;strokeWidth=2;glass=0;arcSize=10;" parent="ayehK-fuNoa_W2m06wCX-124" vertex="1">
          <mxGeometry x="80" width="35" height="18" as="geometry" />
        </mxCell>
        <mxCell id="ayehK-fuNoa_W2m06wCX-128" value="" style="group;rounded=1;glass=0;arcSize=10;" parent="1" vertex="1" connectable="0">
          <mxGeometry x="443" y="99.5" width="18" height="115" as="geometry" />
        </mxCell>
        <mxCell id="ayehK-fuNoa_W2m06wCX-129" value="&lt;font style=&quot;font-size: 14px;&quot;&gt;0&lt;/font&gt;" style="text;html=1;strokeColor=#6c8ebf;fillColor=#dae8fc;align=center;verticalAlign=middle;whiteSpace=wrap;rounded=1;strokeWidth=2;glass=0;arcSize=10;" parent="ayehK-fuNoa_W2m06wCX-128" vertex="1">
          <mxGeometry width="18" height="35" as="geometry" />
        </mxCell>
        <mxCell id="ayehK-fuNoa_W2m06wCX-130" value="&lt;font style=&quot;font-size: 14px;&quot;&gt;1&lt;/font&gt;" style="text;html=1;strokeColor=#6c8ebf;fillColor=#dae8fc;align=center;verticalAlign=middle;whiteSpace=wrap;rounded=1;strokeWidth=2;glass=0;arcSize=10;" parent="ayehK-fuNoa_W2m06wCX-128" vertex="1">
          <mxGeometry y="40" width="18" height="35" as="geometry" />
        </mxCell>
        <mxCell id="ayehK-fuNoa_W2m06wCX-131" value="&lt;font style=&quot;font-size: 14px;&quot;&gt;2&lt;/font&gt;" style="text;html=1;strokeColor=#6c8ebf;fillColor=#dae8fc;align=center;verticalAlign=middle;whiteSpace=wrap;rounded=1;strokeWidth=2;glass=0;arcSize=10;" parent="ayehK-fuNoa_W2m06wCX-128" vertex="1">
          <mxGeometry y="80" width="18" height="35" as="geometry" />
        </mxCell>
        <mxCell id="ayehK-fuNoa_W2m06wCX-132" value="&lt;font style=&quot;font-size: 16px;&quot;&gt;&lt;b&gt;88&lt;/b&gt;&lt;/font&gt;" style="whiteSpace=wrap;html=1;aspect=fixed;fillColor=#d5e8d4;strokeColor=#356a16;strokeWidth=2;rounded=1;glass=0;absoluteArcSize=0;arcSize=10;" parent="1" vertex="1">
          <mxGeometry x="671" y="95.5" width="35" height="35" as="geometry" />
        </mxCell>
        <mxCell id="ayehK-fuNoa_W2m06wCX-133" value="&lt;font style=&quot;font-size: 16px;&quot;&gt;3&lt;/font&gt;" style="whiteSpace=wrap;html=1;aspect=fixed;fillColor=#f8cecc;strokeColor=#D9635E;strokeWidth=2;rounded=1;glass=0;arcSize=10;" parent="1" vertex="1">
          <mxGeometry x="711" y="95.5" width="35" height="35" as="geometry" />
        </mxCell>
        <mxCell id="ayehK-fuNoa_W2m06wCX-134" value="&lt;font style=&quot;font-size: 16px;&quot;&gt;1&lt;/font&gt;" style="whiteSpace=wrap;html=1;aspect=fixed;fillColor=#f8cecc;strokeColor=#D9635E;strokeWidth=2;rounded=1;glass=0;arcSize=10;" parent="1" vertex="1">
          <mxGeometry x="751" y="95.5" width="35" height="35" as="geometry" />
        </mxCell>
        <mxCell id="ayehK-fuNoa_W2m06wCX-135" value="&lt;font style=&quot;font-size: 16px;&quot;&gt;9&lt;/font&gt;" style="whiteSpace=wrap;html=1;aspect=fixed;fillColor=#f8cecc;strokeColor=#D9635E;strokeWidth=2;rounded=1;glass=0;arcSize=10;" parent="1" vertex="1">
          <mxGeometry x="671" y="135.5" width="35" height="35" as="geometry" />
        </mxCell>
        <mxCell id="ayehK-fuNoa_W2m06wCX-136" value="&lt;font style=&quot;font-size: 16px;&quot;&gt;&lt;b&gt;119&lt;/b&gt;&lt;/font&gt;" style="whiteSpace=wrap;html=1;aspect=fixed;fillColor=#d5e8d4;strokeColor=#356A16;strokeWidth=2;rounded=1;glass=0;arcSize=10;" parent="1" vertex="1">
          <mxGeometry x="711" y="135.5" width="35" height="35" as="geometry" />
        </mxCell>
        <mxCell id="ayehK-fuNoa_W2m06wCX-137" value="&lt;font style=&quot;font-size: 16px;&quot;&gt;18&lt;/font&gt;" style="whiteSpace=wrap;html=1;aspect=fixed;fillColor=#f8cecc;strokeColor=#D9635E;strokeWidth=2;rounded=1;glass=0;arcSize=10;" parent="1" vertex="1">
          <mxGeometry x="751" y="135.5" width="35" height="35" as="geometry" />
        </mxCell>
        <mxCell id="ayehK-fuNoa_W2m06wCX-138" value="&lt;font style=&quot;font-size: 16px;&quot;&gt;5&lt;/font&gt;" style="whiteSpace=wrap;html=1;aspect=fixed;fillColor=#f8cecc;strokeColor=#D9635E;strokeWidth=2;rounded=1;glass=0;arcSize=10;" parent="1" vertex="1">
          <mxGeometry x="671" y="175.5" width="35" height="35" as="geometry" />
        </mxCell>
        <mxCell id="ayehK-fuNoa_W2m06wCX-139" value="&lt;font style=&quot;font-size: 16px;&quot;&gt;33&lt;/font&gt;" style="whiteSpace=wrap;html=1;aspect=fixed;fillColor=#f8cecc;strokeColor=#D9635E;strokeWidth=2;rounded=1;glass=0;arcSize=10;" parent="1" vertex="1">
          <mxGeometry x="711" y="175.5" width="35" height="35" as="geometry" />
        </mxCell>
        <mxCell id="ayehK-fuNoa_W2m06wCX-140" value="&lt;font style=&quot;font-size: 16px;&quot;&gt;&lt;b&gt;128&lt;/b&gt;&lt;/font&gt;" style="whiteSpace=wrap;html=1;aspect=fixed;strokeWidth=2;fillColor=#d5e8d4;strokeColor=#356A16;rounded=1;glass=0;arcSize=10;" parent="1" vertex="1">
          <mxGeometry x="751" y="175.5" width="35" height="35" as="geometry" />
        </mxCell>
        <mxCell id="ayehK-fuNoa_W2m06wCX-141" value="" style="group;rounded=1;glass=0;arcSize=10;" parent="1" vertex="1" connectable="0">
          <mxGeometry x="671" y="68.5" width="115" height="18" as="geometry" />
        </mxCell>
        <mxCell id="ayehK-fuNoa_W2m06wCX-142" value="&lt;font style=&quot;font-size: 14px;&quot;&gt;0&lt;/font&gt;" style="text;html=1;strokeColor=#6c8ebf;fillColor=#dae8fc;align=center;verticalAlign=middle;whiteSpace=wrap;rounded=1;strokeWidth=2;glass=0;arcSize=10;" parent="ayehK-fuNoa_W2m06wCX-141" vertex="1">
          <mxGeometry width="35" height="18" as="geometry" />
        </mxCell>
        <mxCell id="ayehK-fuNoa_W2m06wCX-143" value="&lt;font style=&quot;font-size: 14px;&quot;&gt;1&lt;/font&gt;" style="text;html=1;strokeColor=#6c8ebf;fillColor=#dae8fc;align=center;verticalAlign=middle;whiteSpace=wrap;rounded=1;strokeWidth=2;glass=0;arcSize=10;" parent="ayehK-fuNoa_W2m06wCX-141" vertex="1">
          <mxGeometry x="40" width="35" height="18" as="geometry" />
        </mxCell>
        <mxCell id="ayehK-fuNoa_W2m06wCX-144" value="&lt;font style=&quot;font-size: 14px;&quot;&gt;2&lt;/font&gt;" style="text;html=1;strokeColor=#6c8ebf;fillColor=#dae8fc;align=center;verticalAlign=middle;whiteSpace=wrap;rounded=1;strokeWidth=2;glass=0;arcSize=10;" parent="ayehK-fuNoa_W2m06wCX-141" vertex="1">
          <mxGeometry x="80" width="35" height="18" as="geometry" />
        </mxCell>
        <mxCell id="ayehK-fuNoa_W2m06wCX-145" value="" style="group;rounded=1;glass=0;arcSize=10;" parent="1" vertex="1" connectable="0">
          <mxGeometry x="643" y="95.5" width="18" height="115" as="geometry" />
        </mxCell>
        <mxCell id="ayehK-fuNoa_W2m06wCX-146" value="&lt;font style=&quot;font-size: 14px;&quot;&gt;0&lt;/font&gt;" style="text;html=1;strokeColor=#6c8ebf;fillColor=#dae8fc;align=center;verticalAlign=middle;whiteSpace=wrap;rounded=1;strokeWidth=2;glass=0;arcSize=10;" parent="ayehK-fuNoa_W2m06wCX-145" vertex="1">
          <mxGeometry width="18" height="35" as="geometry" />
        </mxCell>
        <mxCell id="ayehK-fuNoa_W2m06wCX-147" value="&lt;font style=&quot;font-size: 14px;&quot;&gt;1&lt;/font&gt;" style="text;html=1;strokeColor=#6c8ebf;fillColor=#dae8fc;align=center;verticalAlign=middle;whiteSpace=wrap;rounded=1;strokeWidth=2;glass=0;arcSize=10;" parent="ayehK-fuNoa_W2m06wCX-145" vertex="1">
          <mxGeometry y="40" width="18" height="35" as="geometry" />
        </mxCell>
        <mxCell id="ayehK-fuNoa_W2m06wCX-148" value="&lt;font style=&quot;font-size: 14px;&quot;&gt;2&lt;/font&gt;" style="text;html=1;strokeColor=#6c8ebf;fillColor=#dae8fc;align=center;verticalAlign=middle;whiteSpace=wrap;rounded=1;strokeWidth=2;glass=0;arcSize=10;" parent="ayehK-fuNoa_W2m06wCX-145" vertex="1">
          <mxGeometry y="80" width="18" height="35" as="geometry" />
        </mxCell>
        <mxCell id="ayehK-fuNoa_W2m06wCX-149" value="" style="endArrow=none;dashed=1;html=1;rounded=1;endSize=6;strokeWidth=1.5;strokeColor=#4D4D4D;" parent="1" edge="1">
          <mxGeometry width="50" height="50" relative="1" as="geometry">
            <mxPoint x="466" y="215.5" as="sourcePoint" />
            <mxPoint x="588" y="95.5" as="targetPoint" />
            <Array as="points">
              <mxPoint x="466" y="95.5" />
            </Array>
          </mxGeometry>
        </mxCell>
        <mxCell id="ayehK-fuNoa_W2m06wCX-150" value="" style="endArrow=none;dashed=1;html=1;rounded=1;endSize=6;strokeWidth=1.5;strokeColor=#4D4D4D;" parent="1" edge="1">
          <mxGeometry width="50" height="50" relative="1" as="geometry">
            <mxPoint x="666" y="211.5" as="sourcePoint" />
            <mxPoint x="788" y="91.5" as="targetPoint" />
            <Array as="points">
              <mxPoint x="666" y="91.5" />
            </Array>
          </mxGeometry>
        </mxCell>
        <mxCell id="ayehK-fuNoa_W2m06wCX-151" value="&lt;font style=&quot;font-size: 16px;&quot;&gt;&lt;b&gt;87&lt;span style=&quot;white-space: pre;&quot;&gt;&#x9;&lt;/span&gt;&lt;/b&gt;&lt;/font&gt;" style="whiteSpace=wrap;html=1;aspect=fixed;fillColor=#d5e8d4;strokeColor=#356a16;strokeWidth=2;rounded=1;glass=0;absoluteArcSize=0;arcSize=10;" parent="1" vertex="1">
          <mxGeometry x="269.5" y="99.5" width="35" height="35" as="geometry" />
        </mxCell>
        <mxCell id="ayehK-fuNoa_W2m06wCX-152" value="&lt;font style=&quot;font-size: 16px;&quot;&gt;4&lt;/font&gt;" style="whiteSpace=wrap;html=1;aspect=fixed;fillColor=#f8cecc;strokeColor=#D9635E;strokeWidth=2;rounded=1;glass=0;arcSize=10;" parent="1" vertex="1">
          <mxGeometry x="309.5" y="99.5" width="35" height="35" as="geometry" />
        </mxCell>
        <mxCell id="ayehK-fuNoa_W2m06wCX-153" value="&lt;span style=&quot;font-size: 16px;&quot;&gt;1&lt;/span&gt;" style="whiteSpace=wrap;html=1;aspect=fixed;fillColor=#f8cecc;strokeColor=#D9635E;strokeWidth=2;rounded=1;glass=0;arcSize=10;" parent="1" vertex="1">
          <mxGeometry x="349.5" y="99.5" width="35" height="35" as="geometry" />
        </mxCell>
        <mxCell id="ayehK-fuNoa_W2m06wCX-154" value="&lt;font style=&quot;font-size: 16px;&quot;&gt;7&lt;/font&gt;" style="whiteSpace=wrap;html=1;aspect=fixed;fillColor=#f8cecc;strokeColor=#D9635E;strokeWidth=2;rounded=1;glass=0;arcSize=10;" parent="1" vertex="1">
          <mxGeometry x="269.5" y="139.5" width="35" height="35" as="geometry" />
        </mxCell>
        <mxCell id="ayehK-fuNoa_W2m06wCX-155" value="&lt;font style=&quot;font-size: 16px;&quot;&gt;&lt;b&gt;119&lt;/b&gt;&lt;/font&gt;" style="whiteSpace=wrap;html=1;aspect=fixed;fillColor=#d5e8d4;strokeColor=#356A16;strokeWidth=2;rounded=1;glass=0;arcSize=10;" parent="1" vertex="1">
          <mxGeometry x="309.5" y="139.5" width="35" height="35" as="geometry" />
        </mxCell>
        <mxCell id="ayehK-fuNoa_W2m06wCX-156" value="&lt;font style=&quot;font-size: 16px;&quot;&gt;20&lt;br&gt;&lt;/font&gt;" style="whiteSpace=wrap;html=1;aspect=fixed;fillColor=#f8cecc;strokeColor=#D9635E;strokeWidth=2;rounded=1;glass=0;arcSize=10;" parent="1" vertex="1">
          <mxGeometry x="349.5" y="139.5" width="35" height="35" as="geometry" />
        </mxCell>
        <mxCell id="ayehK-fuNoa_W2m06wCX-157" value="&lt;font style=&quot;font-size: 16px;&quot;&gt;5&lt;/font&gt;" style="whiteSpace=wrap;html=1;aspect=fixed;fillColor=#f8cecc;strokeColor=#D9635E;strokeWidth=2;rounded=1;glass=0;arcSize=10;" parent="1" vertex="1">
          <mxGeometry x="269.5" y="179.5" width="35" height="35" as="geometry" />
        </mxCell>
        <mxCell id="ayehK-fuNoa_W2m06wCX-158" value="&lt;font style=&quot;font-size: 16px;&quot;&gt;42&lt;/font&gt;" style="whiteSpace=wrap;html=1;aspect=fixed;fillColor=#f8cecc;strokeColor=#D9635E;strokeWidth=2;rounded=1;glass=0;arcSize=10;" parent="1" vertex="1">
          <mxGeometry x="309.5" y="179.5" width="35" height="35" as="geometry" />
        </mxCell>
        <mxCell id="ayehK-fuNoa_W2m06wCX-159" value="&lt;font style=&quot;font-size: 16px;&quot;&gt;&lt;b&gt;119&lt;/b&gt;&lt;/font&gt;" style="whiteSpace=wrap;html=1;aspect=fixed;strokeWidth=2;fillColor=#d5e8d4;strokeColor=#356A16;rounded=1;glass=0;arcSize=10;" parent="1" vertex="1">
          <mxGeometry x="349.5" y="179.5" width="35" height="35" as="geometry" />
        </mxCell>
        <mxCell id="ayehK-fuNoa_W2m06wCX-160" value="" style="group;rounded=1;glass=0;arcSize=10;" parent="1" vertex="1" connectable="0">
          <mxGeometry x="269.5" y="72.5" width="115" height="18" as="geometry" />
        </mxCell>
        <mxCell id="ayehK-fuNoa_W2m06wCX-161" value="&lt;font style=&quot;font-size: 14px;&quot;&gt;0&lt;/font&gt;" style="text;html=1;strokeColor=#6c8ebf;fillColor=#dae8fc;align=center;verticalAlign=middle;whiteSpace=wrap;rounded=1;strokeWidth=2;glass=0;arcSize=10;" parent="ayehK-fuNoa_W2m06wCX-160" vertex="1">
          <mxGeometry width="35" height="18" as="geometry" />
        </mxCell>
        <mxCell id="ayehK-fuNoa_W2m06wCX-162" value="&lt;font style=&quot;font-size: 14px;&quot;&gt;1&lt;/font&gt;" style="text;html=1;strokeColor=#6c8ebf;fillColor=#dae8fc;align=center;verticalAlign=middle;whiteSpace=wrap;rounded=1;strokeWidth=2;glass=0;arcSize=10;" parent="ayehK-fuNoa_W2m06wCX-160" vertex="1">
          <mxGeometry x="40" width="35" height="18" as="geometry" />
        </mxCell>
        <mxCell id="ayehK-fuNoa_W2m06wCX-163" value="&lt;font style=&quot;font-size: 14px;&quot;&gt;2&lt;/font&gt;" style="text;html=1;strokeColor=#6c8ebf;fillColor=#dae8fc;align=center;verticalAlign=middle;whiteSpace=wrap;rounded=1;strokeWidth=2;glass=0;arcSize=10;" parent="ayehK-fuNoa_W2m06wCX-160" vertex="1">
          <mxGeometry x="80" width="35" height="18" as="geometry" />
        </mxCell>
        <mxCell id="ayehK-fuNoa_W2m06wCX-164" value="" style="group;rounded=1;glass=0;arcSize=10;" parent="1" vertex="1" connectable="0">
          <mxGeometry x="241.5" y="99.5" width="18" height="115" as="geometry" />
        </mxCell>
        <mxCell id="ayehK-fuNoa_W2m06wCX-165" value="&lt;font style=&quot;font-size: 14px;&quot;&gt;0&lt;/font&gt;" style="text;html=1;strokeColor=#6c8ebf;fillColor=#dae8fc;align=center;verticalAlign=middle;whiteSpace=wrap;rounded=1;strokeWidth=2;glass=0;arcSize=10;" parent="ayehK-fuNoa_W2m06wCX-164" vertex="1">
          <mxGeometry width="18" height="35" as="geometry" />
        </mxCell>
        <mxCell id="ayehK-fuNoa_W2m06wCX-166" value="&lt;font style=&quot;font-size: 14px;&quot;&gt;1&lt;/font&gt;" style="text;html=1;strokeColor=#6c8ebf;fillColor=#dae8fc;align=center;verticalAlign=middle;whiteSpace=wrap;rounded=1;strokeWidth=2;glass=0;arcSize=10;" parent="ayehK-fuNoa_W2m06wCX-164" vertex="1">
          <mxGeometry y="40" width="18" height="35" as="geometry" />
        </mxCell>
        <mxCell id="ayehK-fuNoa_W2m06wCX-167" value="&lt;font style=&quot;font-size: 14px;&quot;&gt;2&lt;/font&gt;" style="text;html=1;strokeColor=#6c8ebf;fillColor=#dae8fc;align=center;verticalAlign=middle;whiteSpace=wrap;rounded=1;strokeWidth=2;glass=0;arcSize=10;" parent="ayehK-fuNoa_W2m06wCX-164" vertex="1">
          <mxGeometry y="80" width="18" height="35" as="geometry" />
        </mxCell>
        <mxCell id="ayehK-fuNoa_W2m06wCX-168" value="" style="endArrow=none;dashed=1;html=1;rounded=1;endSize=6;strokeWidth=1.5;strokeColor=#4D4D4D;" parent="1" edge="1">
          <mxGeometry width="50" height="50" relative="1" as="geometry">
            <mxPoint x="264.5" y="215.5" as="sourcePoint" />
            <mxPoint x="386.5" y="95.5" as="targetPoint" />
            <Array as="points">
              <mxPoint x="264.5" y="95.5" />
            </Array>
          </mxGeometry>
        </mxCell>
        <mxCell id="ayehK-fuNoa_W2m06wCX-169" value="&lt;font style=&quot;font-size: 16px;&quot;&gt;&lt;b&gt;83&lt;/b&gt;&lt;/font&gt;" style="whiteSpace=wrap;html=1;aspect=fixed;fillColor=#d5e8d4;strokeColor=#356a16;strokeWidth=2;rounded=1;glass=0;absoluteArcSize=0;arcSize=10;" parent="1" vertex="1">
          <mxGeometry x="671" y="342.5" width="35" height="35" as="geometry" />
        </mxCell>
        <mxCell id="ayehK-fuNoa_W2m06wCX-170" value="&lt;font style=&quot;font-size: 16px;&quot;&gt;6&lt;/font&gt;" style="whiteSpace=wrap;html=1;aspect=fixed;fillColor=#f8cecc;strokeColor=#D9635E;strokeWidth=2;rounded=1;glass=0;arcSize=10;" parent="1" vertex="1">
          <mxGeometry x="711" y="342.5" width="35" height="35" as="geometry" />
        </mxCell>
        <mxCell id="ayehK-fuNoa_W2m06wCX-171" value="&lt;font style=&quot;font-size: 16px;&quot;&gt;3&lt;/font&gt;" style="whiteSpace=wrap;html=1;aspect=fixed;fillColor=#f8cecc;strokeColor=#D9635E;strokeWidth=2;rounded=1;glass=0;arcSize=10;" parent="1" vertex="1">
          <mxGeometry x="751" y="342.5" width="35" height="35" as="geometry" />
        </mxCell>
        <mxCell id="ayehK-fuNoa_W2m06wCX-172" value="&lt;font style=&quot;font-size: 16px;&quot;&gt;4&lt;/font&gt;" style="whiteSpace=wrap;html=1;aspect=fixed;fillColor=#f8cecc;strokeColor=#D9635E;strokeWidth=2;rounded=1;glass=0;arcSize=10;" parent="1" vertex="1">
          <mxGeometry x="671" y="382.5" width="35" height="35" as="geometry" />
        </mxCell>
        <mxCell id="ayehK-fuNoa_W2m06wCX-173" value="&lt;font style=&quot;font-size: 16px;&quot;&gt;&lt;b&gt;119&lt;/b&gt;&lt;/font&gt;" style="whiteSpace=wrap;html=1;aspect=fixed;fillColor=#d5e8d4;strokeColor=#356A16;strokeWidth=2;rounded=1;glass=0;arcSize=10;" parent="1" vertex="1">
          <mxGeometry x="711" y="382.5" width="35" height="35" as="geometry" />
        </mxCell>
        <mxCell id="ayehK-fuNoa_W2m06wCX-174" value="&lt;font style=&quot;font-size: 16px;&quot;&gt;23&lt;/font&gt;" style="whiteSpace=wrap;html=1;aspect=fixed;fillColor=#f8cecc;strokeColor=#D9635E;strokeWidth=2;rounded=1;glass=0;arcSize=10;" parent="1" vertex="1">
          <mxGeometry x="751" y="382.5" width="35" height="35" as="geometry" />
        </mxCell>
        <mxCell id="ayehK-fuNoa_W2m06wCX-175" value="&lt;font style=&quot;font-size: 16px;&quot;&gt;3&lt;/font&gt;" style="whiteSpace=wrap;html=1;aspect=fixed;fillColor=#f8cecc;strokeColor=#D9635E;strokeWidth=2;rounded=1;glass=0;arcSize=10;" parent="1" vertex="1">
          <mxGeometry x="671" y="422.5" width="35" height="35" as="geometry" />
        </mxCell>
        <mxCell id="ayehK-fuNoa_W2m06wCX-176" value="&lt;span style=&quot;font-size: 16px;&quot;&gt;37&lt;/span&gt;" style="whiteSpace=wrap;html=1;aspect=fixed;fillColor=#f8cecc;strokeColor=#D9635E;strokeWidth=2;rounded=1;glass=0;arcSize=10;" parent="1" vertex="1">
          <mxGeometry x="711" y="422.5" width="35" height="35" as="geometry" />
        </mxCell>
        <mxCell id="ayehK-fuNoa_W2m06wCX-177" value="&lt;font style=&quot;font-size: 16px;&quot;&gt;&lt;b&gt;126&lt;/b&gt;&lt;/font&gt;" style="whiteSpace=wrap;html=1;aspect=fixed;strokeWidth=2;fillColor=#d5e8d4;strokeColor=#356A16;rounded=1;glass=0;arcSize=10;" parent="1" vertex="1">
          <mxGeometry x="751" y="422.5" width="35" height="35" as="geometry" />
        </mxCell>
        <mxCell id="ayehK-fuNoa_W2m06wCX-178" value="" style="group;rounded=1;glass=0;arcSize=10;" parent="1" vertex="1" connectable="0">
          <mxGeometry x="671" y="315.5" width="115" height="18" as="geometry" />
        </mxCell>
        <mxCell id="ayehK-fuNoa_W2m06wCX-179" value="&lt;font style=&quot;font-size: 14px;&quot;&gt;0&lt;/font&gt;" style="text;html=1;strokeColor=#6c8ebf;fillColor=#dae8fc;align=center;verticalAlign=middle;whiteSpace=wrap;rounded=1;strokeWidth=2;glass=0;arcSize=10;" parent="ayehK-fuNoa_W2m06wCX-178" vertex="1">
          <mxGeometry width="35" height="18" as="geometry" />
        </mxCell>
        <mxCell id="ayehK-fuNoa_W2m06wCX-180" value="&lt;font style=&quot;font-size: 14px;&quot;&gt;1&lt;/font&gt;" style="text;html=1;strokeColor=#6c8ebf;fillColor=#dae8fc;align=center;verticalAlign=middle;whiteSpace=wrap;rounded=1;strokeWidth=2;glass=0;arcSize=10;" parent="ayehK-fuNoa_W2m06wCX-178" vertex="1">
          <mxGeometry x="40" width="35" height="18" as="geometry" />
        </mxCell>
        <mxCell id="ayehK-fuNoa_W2m06wCX-181" value="&lt;font style=&quot;font-size: 14px;&quot;&gt;2&lt;/font&gt;" style="text;html=1;strokeColor=#6c8ebf;fillColor=#dae8fc;align=center;verticalAlign=middle;whiteSpace=wrap;rounded=1;strokeWidth=2;glass=0;arcSize=10;" parent="ayehK-fuNoa_W2m06wCX-178" vertex="1">
          <mxGeometry x="80" width="35" height="18" as="geometry" />
        </mxCell>
        <mxCell id="ayehK-fuNoa_W2m06wCX-182" value="" style="group;rounded=1;glass=0;arcSize=10;" parent="1" vertex="1" connectable="0">
          <mxGeometry x="643" y="342.5" width="18" height="115" as="geometry" />
        </mxCell>
        <mxCell id="ayehK-fuNoa_W2m06wCX-183" value="&lt;font style=&quot;font-size: 14px;&quot;&gt;0&lt;/font&gt;" style="text;html=1;strokeColor=#6c8ebf;fillColor=#dae8fc;align=center;verticalAlign=middle;whiteSpace=wrap;rounded=1;strokeWidth=2;glass=0;arcSize=10;" parent="ayehK-fuNoa_W2m06wCX-182" vertex="1">
          <mxGeometry width="18" height="35" as="geometry" />
        </mxCell>
        <mxCell id="ayehK-fuNoa_W2m06wCX-184" value="&lt;font style=&quot;font-size: 14px;&quot;&gt;1&lt;/font&gt;" style="text;html=1;strokeColor=#6c8ebf;fillColor=#dae8fc;align=center;verticalAlign=middle;whiteSpace=wrap;rounded=1;strokeWidth=2;glass=0;arcSize=10;" parent="ayehK-fuNoa_W2m06wCX-182" vertex="1">
          <mxGeometry y="40" width="18" height="35" as="geometry" />
        </mxCell>
        <mxCell id="ayehK-fuNoa_W2m06wCX-185" value="&lt;font style=&quot;font-size: 14px;&quot;&gt;2&lt;/font&gt;" style="text;html=1;strokeColor=#6c8ebf;fillColor=#dae8fc;align=center;verticalAlign=middle;whiteSpace=wrap;rounded=1;strokeWidth=2;glass=0;arcSize=10;" parent="ayehK-fuNoa_W2m06wCX-182" vertex="1">
          <mxGeometry y="80" width="18" height="35" as="geometry" />
        </mxCell>
        <mxCell id="ayehK-fuNoa_W2m06wCX-186" value="&lt;font style=&quot;font-size: 16px;&quot;&gt;&lt;b&gt;92&lt;/b&gt;&lt;/font&gt;" style="whiteSpace=wrap;html=1;aspect=fixed;fillColor=#d5e8d4;strokeColor=#356a16;strokeWidth=2;rounded=1;glass=0;absoluteArcSize=0;arcSize=10;" parent="1" vertex="1">
          <mxGeometry x="469" y="342.5" width="35" height="35" as="geometry" />
        </mxCell>
        <mxCell id="ayehK-fuNoa_W2m06wCX-187" value="&lt;font style=&quot;font-size: 16px;&quot;&gt;10&lt;/font&gt;" style="whiteSpace=wrap;html=1;aspect=fixed;fillColor=#f8cecc;strokeColor=#D9635E;strokeWidth=2;rounded=1;glass=0;arcSize=10;" parent="1" vertex="1">
          <mxGeometry x="509" y="342.5" width="35" height="35" as="geometry" />
        </mxCell>
        <mxCell id="ayehK-fuNoa_W2m06wCX-188" value="&lt;font style=&quot;font-size: 16px;&quot;&gt;8&lt;/font&gt;" style="whiteSpace=wrap;html=1;aspect=fixed;fillColor=#f8cecc;strokeColor=#D9635E;strokeWidth=2;rounded=1;glass=0;arcSize=10;" parent="1" vertex="1">
          <mxGeometry x="549" y="342.5" width="35" height="35" as="geometry" />
        </mxCell>
        <mxCell id="ayehK-fuNoa_W2m06wCX-189" value="&lt;font style=&quot;font-size: 16px;&quot;&gt;4&lt;/font&gt;" style="whiteSpace=wrap;html=1;aspect=fixed;fillColor=#f8cecc;strokeColor=#D9635E;strokeWidth=2;rounded=1;glass=0;arcSize=10;" parent="1" vertex="1">
          <mxGeometry x="469" y="382.5" width="35" height="35" as="geometry" />
        </mxCell>
        <mxCell id="ayehK-fuNoa_W2m06wCX-190" value="&lt;font style=&quot;font-size: 16px;&quot;&gt;&lt;b&gt;119&lt;/b&gt;&lt;/font&gt;" style="whiteSpace=wrap;html=1;aspect=fixed;fillColor=#d5e8d4;strokeColor=#356A16;strokeWidth=2;rounded=1;glass=0;arcSize=10;" parent="1" vertex="1">
          <mxGeometry x="509" y="382.5" width="35" height="35" as="geometry" />
        </mxCell>
        <mxCell id="ayehK-fuNoa_W2m06wCX-191" value="&lt;font style=&quot;font-size: 16px;&quot;&gt;42&lt;/font&gt;" style="whiteSpace=wrap;html=1;aspect=fixed;fillColor=#f8cecc;strokeColor=#D9635E;strokeWidth=2;rounded=1;glass=0;arcSize=10;" parent="1" vertex="1">
          <mxGeometry x="549" y="382.5" width="35" height="35" as="geometry" />
        </mxCell>
        <mxCell id="ayehK-fuNoa_W2m06wCX-192" value="&lt;font style=&quot;font-size: 16px;&quot;&gt;1&lt;/font&gt;" style="whiteSpace=wrap;html=1;aspect=fixed;fillColor=#f8cecc;strokeColor=#D9635E;strokeWidth=2;rounded=1;glass=0;arcSize=10;" parent="1" vertex="1">
          <mxGeometry x="469" y="422.5" width="35" height="35" as="geometry" />
        </mxCell>
        <mxCell id="ayehK-fuNoa_W2m06wCX-193" value="&lt;font style=&quot;font-size: 16px;&quot;&gt;18&lt;/font&gt;" style="whiteSpace=wrap;html=1;aspect=fixed;fillColor=#f8cecc;strokeColor=#D9635E;strokeWidth=2;rounded=1;glass=0;arcSize=10;" parent="1" vertex="1">
          <mxGeometry x="509" y="422.5" width="35" height="35" as="geometry" />
        </mxCell>
        <mxCell id="ayehK-fuNoa_W2m06wCX-194" value="&lt;font style=&quot;font-size: 16px;&quot;&gt;&lt;b&gt;118&lt;/b&gt;&lt;/font&gt;" style="whiteSpace=wrap;html=1;aspect=fixed;strokeWidth=2;fillColor=#d5e8d4;strokeColor=#356A16;rounded=1;glass=0;arcSize=10;" parent="1" vertex="1">
          <mxGeometry x="549" y="422.5" width="35" height="35" as="geometry" />
        </mxCell>
        <mxCell id="ayehK-fuNoa_W2m06wCX-195" value="" style="group;rounded=1;glass=0;arcSize=10;" parent="1" vertex="1" connectable="0">
          <mxGeometry x="469" y="315.5" width="115" height="18" as="geometry" />
        </mxCell>
        <mxCell id="ayehK-fuNoa_W2m06wCX-196" value="&lt;font style=&quot;font-size: 14px;&quot;&gt;0&lt;/font&gt;" style="text;html=1;strokeColor=#6c8ebf;fillColor=#dae8fc;align=center;verticalAlign=middle;whiteSpace=wrap;rounded=1;strokeWidth=2;glass=0;arcSize=10;" parent="ayehK-fuNoa_W2m06wCX-195" vertex="1">
          <mxGeometry width="35" height="18" as="geometry" />
        </mxCell>
        <mxCell id="ayehK-fuNoa_W2m06wCX-197" value="&lt;font style=&quot;font-size: 14px;&quot;&gt;1&lt;/font&gt;" style="text;html=1;strokeColor=#6c8ebf;fillColor=#dae8fc;align=center;verticalAlign=middle;whiteSpace=wrap;rounded=1;strokeWidth=2;glass=0;arcSize=10;" parent="ayehK-fuNoa_W2m06wCX-195" vertex="1">
          <mxGeometry x="40" width="35" height="18" as="geometry" />
        </mxCell>
        <mxCell id="ayehK-fuNoa_W2m06wCX-198" value="&lt;font style=&quot;font-size: 14px;&quot;&gt;2&lt;/font&gt;" style="text;html=1;strokeColor=#6c8ebf;fillColor=#dae8fc;align=center;verticalAlign=middle;whiteSpace=wrap;rounded=1;strokeWidth=2;glass=0;arcSize=10;" parent="ayehK-fuNoa_W2m06wCX-195" vertex="1">
          <mxGeometry x="80" width="35" height="18" as="geometry" />
        </mxCell>
        <mxCell id="ayehK-fuNoa_W2m06wCX-199" value="" style="group;rounded=1;glass=0;arcSize=10;" parent="1" vertex="1" connectable="0">
          <mxGeometry x="441" y="342.5" width="18" height="115" as="geometry" />
        </mxCell>
        <mxCell id="ayehK-fuNoa_W2m06wCX-200" value="&lt;font style=&quot;font-size: 14px;&quot;&gt;0&lt;/font&gt;" style="text;html=1;strokeColor=#6c8ebf;fillColor=#dae8fc;align=center;verticalAlign=middle;whiteSpace=wrap;rounded=1;strokeWidth=2;glass=0;arcSize=10;" parent="ayehK-fuNoa_W2m06wCX-199" vertex="1">
          <mxGeometry width="18" height="35" as="geometry" />
        </mxCell>
        <mxCell id="ayehK-fuNoa_W2m06wCX-201" value="&lt;font style=&quot;font-size: 14px;&quot;&gt;1&lt;/font&gt;" style="text;html=1;strokeColor=#6c8ebf;fillColor=#dae8fc;align=center;verticalAlign=middle;whiteSpace=wrap;rounded=1;strokeWidth=2;glass=0;arcSize=10;" parent="ayehK-fuNoa_W2m06wCX-199" vertex="1">
          <mxGeometry y="40" width="18" height="35" as="geometry" />
        </mxCell>
        <mxCell id="ayehK-fuNoa_W2m06wCX-202" value="&lt;font style=&quot;font-size: 14px;&quot;&gt;2&lt;/font&gt;" style="text;html=1;strokeColor=#6c8ebf;fillColor=#dae8fc;align=center;verticalAlign=middle;whiteSpace=wrap;rounded=1;strokeWidth=2;glass=0;arcSize=10;" parent="ayehK-fuNoa_W2m06wCX-199" vertex="1">
          <mxGeometry y="80" width="18" height="35" as="geometry" />
        </mxCell>
        <mxCell id="ayehK-fuNoa_W2m06wCX-203" value="" style="endArrow=none;dashed=1;html=1;rounded=1;endSize=6;strokeWidth=1.5;strokeColor=#4D4D4D;" parent="1" edge="1">
          <mxGeometry width="50" height="50" relative="1" as="geometry">
            <mxPoint x="666" y="458.5" as="sourcePoint" />
            <mxPoint x="788" y="338.5" as="targetPoint" />
            <Array as="points">
              <mxPoint x="666" y="338.5" />
            </Array>
          </mxGeometry>
        </mxCell>
        <mxCell id="ayehK-fuNoa_W2m06wCX-204" value="" style="endArrow=none;dashed=1;html=1;rounded=1;endSize=6;strokeWidth=1.5;strokeColor=#4D4D4D;" parent="1" edge="1">
          <mxGeometry width="50" height="50" relative="1" as="geometry">
            <mxPoint x="464" y="458.5" as="sourcePoint" />
            <mxPoint x="586" y="338.5" as="targetPoint" />
            <Array as="points">
              <mxPoint x="464" y="338.5" />
            </Array>
          </mxGeometry>
        </mxCell>
        <mxCell id="ayehK-fuNoa_W2m06wCX-205" value="&lt;b&gt;&lt;font style=&quot;font-size: 14px;&quot;&gt;Subtyping&lt;/font&gt;&lt;/b&gt;" style="text;html=1;strokeColor=#666666;fillColor=#f5f5f5;align=center;verticalAlign=middle;whiteSpace=wrap;rounded=1;fontColor=#333333;strokeWidth=2;" parent="1" vertex="1">
          <mxGeometry x="269.5" y="19.5" width="115" height="40" as="geometry" />
        </mxCell>
        <mxCell id="ayehK-fuNoa_W2m06wCX-206" value="&lt;b&gt;&lt;font style=&quot;font-size: 14px;&quot;&gt;Subtyping-FGA&lt;/font&gt;&lt;/b&gt;" style="text;html=1;strokeColor=#666666;fillColor=#f5f5f5;align=center;verticalAlign=middle;whiteSpace=wrap;rounded=1;fontColor=#333333;strokeWidth=2;" parent="1" vertex="1">
          <mxGeometry x="471" y="19.5" width="115" height="40" as="geometry" />
        </mxCell>
        <mxCell id="ayehK-fuNoa_W2m06wCX-207" value="&lt;b&gt;&lt;font style=&quot;font-size: 14px;&quot;&gt;Subtyping-Purity&lt;/font&gt;&lt;/b&gt;" style="text;html=1;strokeColor=#666666;fillColor=#f5f5f5;align=center;verticalAlign=middle;whiteSpace=wrap;rounded=1;fontColor=#333333;strokeWidth=2;" parent="1" vertex="1">
          <mxGeometry x="671" y="15.5" width="115" height="40" as="geometry" />
        </mxCell>
        <mxCell id="ayehK-fuNoa_W2m06wCX-208" value="&lt;b&gt;&lt;font style=&quot;font-size: 14px;&quot;&gt;Subtyping-Staging&lt;/font&gt;&lt;/b&gt;" style="text;html=1;strokeColor=#666666;fillColor=#f5f5f5;align=center;verticalAlign=middle;whiteSpace=wrap;rounded=1;fontColor=#333333;strokeWidth=2;" parent="1" vertex="1">
          <mxGeometry x="867" y="15.5" width="115" height="40" as="geometry" />
        </mxCell>
        <mxCell id="ayehK-fuNoa_W2m06wCX-209" value="&lt;b&gt;&lt;font style=&quot;font-size: 14px;&quot;&gt;Subtyping-Purity-FGA&lt;/font&gt;&lt;/b&gt;" style="text;html=1;strokeColor=#666666;fillColor=#f5f5f5;align=center;verticalAlign=middle;whiteSpace=wrap;rounded=1;fontColor=#333333;strokeWidth=2;" parent="1" vertex="1">
          <mxGeometry x="271.5" y="256.5" width="115" height="46" as="geometry" />
        </mxCell>
        <mxCell id="ayehK-fuNoa_W2m06wCX-210" value="&lt;b&gt;&lt;font style=&quot;font-size: 14px;&quot;&gt;Subtyping-Purity-Staging&lt;/font&gt;&lt;/b&gt;" style="text;html=1;strokeColor=#666666;fillColor=#f5f5f5;align=center;verticalAlign=middle;whiteSpace=wrap;rounded=1;fontColor=#333333;strokeWidth=2;" parent="1" vertex="1">
          <mxGeometry x="466" y="256.5" width="115" height="46" as="geometry" />
        </mxCell>
        <mxCell id="ayehK-fuNoa_W2m06wCX-211" value="&lt;b&gt;&lt;font style=&quot;font-size: 14px;&quot;&gt;Subtyping-FGA-Staging&lt;/font&gt;&lt;/b&gt;" style="text;html=1;strokeColor=#666666;fillColor=#f5f5f5;align=center;verticalAlign=middle;whiteSpace=wrap;rounded=1;fontColor=#333333;strokeWidth=2;" parent="1" vertex="1">
          <mxGeometry x="666" y="256.5" width="115" height="46" as="geometry" />
        </mxCell>
        <mxCell id="ayehK-fuNoa_W2m06wCX-212" value="" style="endArrow=classic;html=1;strokeWidth=1.5;rounded=1;startArrow=classic;startFill=1;endFill=1;strokeColor=#808080;" parent="1" edge="1">
          <mxGeometry width="50" height="50" relative="1" as="geometry">
            <mxPoint x="77.5" y="207.5" as="sourcePoint" />
            <mxPoint x="197.5" y="92.5" as="targetPoint" />
            <Array as="points">
              <mxPoint x="78.5" y="92.5" />
            </Array>
          </mxGeometry>
        </mxCell>
        <mxCell id="ayehK-fuNoa_W2m06wCX-213" value="&lt;b&gt;&lt;font style=&quot;font-size: 14px;&quot;&gt;True Label&lt;/font&gt;&lt;/b&gt;" style="text;html=1;strokeColor=#FFD966;fillColor=#ffe6cc;align=center;verticalAlign=middle;whiteSpace=wrap;rounded=1;strokeWidth=2;" parent="1" vertex="1">
          <mxGeometry x="79.5" y="52.5" width="115" height="30" as="geometry" />
        </mxCell>
        <mxCell id="ayehK-fuNoa_W2m06wCX-214" value="&lt;b&gt;&lt;font style=&quot;font-size: 14px;&quot;&gt;Prediction&lt;br&gt;&lt;/font&gt;&lt;/b&gt;" style="text;html=1;strokeColor=#FFD966;fillColor=#ffe6cc;align=center;verticalAlign=middle;whiteSpace=wrap;rounded=1;strokeWidth=2;rotation=-90;" parent="1" vertex="1">
          <mxGeometry x="-5.5" y="136.5" width="115" height="30" as="geometry" />
        </mxCell>
        <mxCell id="ayehK-fuNoa_W2m06wCX-215" value="&lt;b&gt;&lt;font style=&quot;font-size: 14px;&quot;&gt;Normal: 0&lt;span style=&quot;white-space: pre;&quot;&gt;&#x9;&lt;/span&gt;LUAD: 1&amp;nbsp; &amp;nbsp; &amp;nbsp; &amp;nbsp;LUSC: 2&lt;/font&gt;&lt;/b&gt;" style="text;html=1;strokeColor=#d6b656;fillColor=#fff2cc;align=center;verticalAlign=middle;whiteSpace=wrap;rounded=1;strokeWidth=2;" parent="1" vertex="1">
          <mxGeometry x="461" y="510" width="290" height="30" as="geometry" />
        </mxCell>
        <mxCell id="ayehK-fuNoa_W2m06wCX-216" value="&lt;font style=&quot;font-size: 16px;&quot;&gt;&lt;b&gt;86&lt;/b&gt;&lt;/font&gt;" style="whiteSpace=wrap;html=1;aspect=fixed;fillColor=#d5e8d4;strokeColor=#356a16;strokeWidth=2;rounded=1;glass=0;absoluteArcSize=0;arcSize=10;" parent="1" vertex="1">
          <mxGeometry x="469" y="342.5" width="35" height="35" as="geometry" />
        </mxCell>
        <mxCell id="ayehK-fuNoa_W2m06wCX-217" value="&lt;font style=&quot;font-size: 16px;&quot;&gt;5&lt;/font&gt;" style="whiteSpace=wrap;html=1;aspect=fixed;fillColor=#f8cecc;strokeColor=#D9635E;strokeWidth=2;rounded=1;glass=0;arcSize=10;" parent="1" vertex="1">
          <mxGeometry x="509" y="342.5" width="35" height="35" as="geometry" />
        </mxCell>
        <mxCell id="ayehK-fuNoa_W2m06wCX-218" value="&lt;font style=&quot;font-size: 16px;&quot;&gt;1&lt;/font&gt;" style="whiteSpace=wrap;html=1;aspect=fixed;fillColor=#f8cecc;strokeColor=#D9635E;strokeWidth=2;rounded=1;glass=0;arcSize=10;" parent="1" vertex="1">
          <mxGeometry x="549" y="342.5" width="35" height="35" as="geometry" />
        </mxCell>
        <mxCell id="ayehK-fuNoa_W2m06wCX-219" value="&lt;font style=&quot;font-size: 16px;&quot;&gt;7&lt;/font&gt;" style="whiteSpace=wrap;html=1;aspect=fixed;fillColor=#f8cecc;strokeColor=#D9635E;strokeWidth=2;rounded=1;glass=0;arcSize=10;" parent="1" vertex="1">
          <mxGeometry x="469" y="382.5" width="35" height="35" as="geometry" />
        </mxCell>
        <mxCell id="ayehK-fuNoa_W2m06wCX-220" value="&lt;font style=&quot;font-size: 16px;&quot;&gt;&lt;b&gt;126&lt;/b&gt;&lt;/font&gt;" style="whiteSpace=wrap;html=1;aspect=fixed;fillColor=#d5e8d4;strokeColor=#356A16;strokeWidth=2;rounded=1;glass=0;arcSize=10;" parent="1" vertex="1">
          <mxGeometry x="509" y="382.5" width="35" height="35" as="geometry" />
        </mxCell>
        <mxCell id="ayehK-fuNoa_W2m06wCX-221" value="&lt;font style=&quot;font-size: 16px;&quot;&gt;13&lt;/font&gt;" style="whiteSpace=wrap;html=1;aspect=fixed;fillColor=#f8cecc;strokeColor=#D9635E;strokeWidth=2;rounded=1;glass=0;arcSize=10;" parent="1" vertex="1">
          <mxGeometry x="549" y="382.5" width="35" height="35" as="geometry" />
        </mxCell>
        <mxCell id="ayehK-fuNoa_W2m06wCX-222" value="&lt;font style=&quot;font-size: 16px;&quot;&gt;5&lt;/font&gt;" style="whiteSpace=wrap;html=1;aspect=fixed;fillColor=#f8cecc;strokeColor=#D9635E;strokeWidth=2;rounded=1;glass=0;arcSize=10;" parent="1" vertex="1">
          <mxGeometry x="469" y="422.5" width="35" height="35" as="geometry" />
        </mxCell>
        <mxCell id="ayehK-fuNoa_W2m06wCX-223" value="&lt;font style=&quot;font-size: 16px;&quot;&gt;48&lt;/font&gt;" style="whiteSpace=wrap;html=1;aspect=fixed;fillColor=#f8cecc;strokeColor=#D9635E;strokeWidth=2;rounded=1;glass=0;arcSize=10;" parent="1" vertex="1">
          <mxGeometry x="509" y="422.5" width="35" height="35" as="geometry" />
        </mxCell>
        <mxCell id="ayehK-fuNoa_W2m06wCX-224" value="&lt;font style=&quot;font-size: 16px;&quot;&gt;&lt;b&gt;113&lt;/b&gt;&lt;/font&gt;" style="whiteSpace=wrap;html=1;aspect=fixed;strokeWidth=2;fillColor=#d5e8d4;strokeColor=#356A16;rounded=1;glass=0;arcSize=10;" parent="1" vertex="1">
          <mxGeometry x="549" y="422.5" width="35" height="35" as="geometry" />
        </mxCell>
        <mxCell id="ayehK-fuNoa_W2m06wCX-225" value="" style="group;rounded=1;glass=0;arcSize=10;" parent="1" vertex="1" connectable="0">
          <mxGeometry x="469" y="315.5" width="115" height="18" as="geometry" />
        </mxCell>
        <mxCell id="ayehK-fuNoa_W2m06wCX-226" value="&lt;font style=&quot;font-size: 14px;&quot;&gt;0&lt;/font&gt;" style="text;html=1;strokeColor=#6c8ebf;fillColor=#dae8fc;align=center;verticalAlign=middle;whiteSpace=wrap;rounded=1;strokeWidth=2;glass=0;arcSize=10;" parent="ayehK-fuNoa_W2m06wCX-225" vertex="1">
          <mxGeometry width="35" height="18" as="geometry" />
        </mxCell>
        <mxCell id="ayehK-fuNoa_W2m06wCX-227" value="&lt;font style=&quot;font-size: 14px;&quot;&gt;1&lt;/font&gt;" style="text;html=1;strokeColor=#6c8ebf;fillColor=#dae8fc;align=center;verticalAlign=middle;whiteSpace=wrap;rounded=1;strokeWidth=2;glass=0;arcSize=10;" parent="ayehK-fuNoa_W2m06wCX-225" vertex="1">
          <mxGeometry x="40" width="35" height="18" as="geometry" />
        </mxCell>
        <mxCell id="ayehK-fuNoa_W2m06wCX-228" value="&lt;font style=&quot;font-size: 14px;&quot;&gt;2&lt;/font&gt;" style="text;html=1;strokeColor=#6c8ebf;fillColor=#dae8fc;align=center;verticalAlign=middle;whiteSpace=wrap;rounded=1;strokeWidth=2;glass=0;arcSize=10;" parent="ayehK-fuNoa_W2m06wCX-225" vertex="1">
          <mxGeometry x="80" width="35" height="18" as="geometry" />
        </mxCell>
        <mxCell id="ayehK-fuNoa_W2m06wCX-229" value="" style="group;rounded=1;glass=0;arcSize=10;" parent="1" vertex="1" connectable="0">
          <mxGeometry x="441" y="342.5" width="18" height="115" as="geometry" />
        </mxCell>
        <mxCell id="ayehK-fuNoa_W2m06wCX-230" value="&lt;font style=&quot;font-size: 14px;&quot;&gt;0&lt;/font&gt;" style="text;html=1;strokeColor=#6c8ebf;fillColor=#dae8fc;align=center;verticalAlign=middle;whiteSpace=wrap;rounded=1;strokeWidth=2;glass=0;arcSize=10;" parent="ayehK-fuNoa_W2m06wCX-229" vertex="1">
          <mxGeometry width="18" height="35" as="geometry" />
        </mxCell>
        <mxCell id="ayehK-fuNoa_W2m06wCX-231" value="&lt;font style=&quot;font-size: 14px;&quot;&gt;1&lt;/font&gt;" style="text;html=1;strokeColor=#6c8ebf;fillColor=#dae8fc;align=center;verticalAlign=middle;whiteSpace=wrap;rounded=1;strokeWidth=2;glass=0;arcSize=10;" parent="ayehK-fuNoa_W2m06wCX-229" vertex="1">
          <mxGeometry y="40" width="18" height="35" as="geometry" />
        </mxCell>
        <mxCell id="ayehK-fuNoa_W2m06wCX-232" value="&lt;font style=&quot;font-size: 14px;&quot;&gt;2&lt;/font&gt;" style="text;html=1;strokeColor=#6c8ebf;fillColor=#dae8fc;align=center;verticalAlign=middle;whiteSpace=wrap;rounded=1;strokeWidth=2;glass=0;arcSize=10;" parent="ayehK-fuNoa_W2m06wCX-229" vertex="1">
          <mxGeometry y="80" width="18" height="35" as="geometry" />
        </mxCell>
        <mxCell id="ayehK-fuNoa_W2m06wCX-233" value="" style="endArrow=none;dashed=1;html=1;rounded=1;endSize=6;strokeWidth=1.5;strokeColor=#4D4D4D;" parent="1" edge="1">
          <mxGeometry width="50" height="50" relative="1" as="geometry">
            <mxPoint x="464" y="458.5" as="sourcePoint" />
            <mxPoint x="586" y="338.5" as="targetPoint" />
            <Array as="points">
              <mxPoint x="464" y="338.5" />
            </Array>
          </mxGeometry>
        </mxCell>
        <mxCell id="ayehK-fuNoa_W2m06wCX-234" value="&lt;font style=&quot;font-size: 16px;&quot;&gt;&lt;b&gt;92&lt;/b&gt;&lt;/font&gt;" style="whiteSpace=wrap;html=1;aspect=fixed;fillColor=#d5e8d4;strokeColor=#356a16;strokeWidth=2;rounded=1;glass=0;absoluteArcSize=0;arcSize=10;" parent="1" vertex="1">
          <mxGeometry x="78.5" y="337.5" width="35" height="35" as="geometry" />
        </mxCell>
        <mxCell id="ayehK-fuNoa_W2m06wCX-235" value="&lt;font style=&quot;font-size: 16px;&quot;&gt;0&lt;/font&gt;" style="whiteSpace=wrap;html=1;aspect=fixed;fillColor=#f8cecc;strokeColor=#D9635E;strokeWidth=2;rounded=1;glass=0;arcSize=10;" parent="1" vertex="1">
          <mxGeometry x="118.5" y="337.5" width="35" height="35" as="geometry" />
        </mxCell>
        <mxCell id="ayehK-fuNoa_W2m06wCX-236" value="&lt;font style=&quot;font-size: 16px;&quot;&gt;0&lt;/font&gt;" style="whiteSpace=wrap;html=1;aspect=fixed;fillColor=#f8cecc;strokeColor=#D9635E;strokeWidth=2;rounded=1;glass=0;arcSize=10;" parent="1" vertex="1">
          <mxGeometry x="158.5" y="337.5" width="35" height="35" as="geometry" />
        </mxCell>
        <mxCell id="ayehK-fuNoa_W2m06wCX-237" value="&lt;font style=&quot;font-size: 16px;&quot;&gt;0&lt;/font&gt;" style="whiteSpace=wrap;html=1;aspect=fixed;fillColor=#f8cecc;strokeColor=#D9635E;strokeWidth=2;rounded=1;glass=0;arcSize=10;" parent="1" vertex="1">
          <mxGeometry x="78.5" y="377.5" width="35" height="35" as="geometry" />
        </mxCell>
        <mxCell id="ayehK-fuNoa_W2m06wCX-238" value="&lt;font style=&quot;font-size: 16px;&quot;&gt;&lt;b&gt;146&lt;/b&gt;&lt;/font&gt;" style="whiteSpace=wrap;html=1;aspect=fixed;fillColor=#d5e8d4;strokeColor=#356A16;strokeWidth=2;rounded=1;glass=0;arcSize=10;" parent="1" vertex="1">
          <mxGeometry x="118.5" y="377.5" width="35" height="35" as="geometry" />
        </mxCell>
        <mxCell id="ayehK-fuNoa_W2m06wCX-239" value="&lt;font style=&quot;font-size: 16px;&quot;&gt;0&lt;/font&gt;" style="whiteSpace=wrap;html=1;aspect=fixed;fillColor=#f8cecc;strokeColor=#D9635E;strokeWidth=2;rounded=1;glass=0;arcSize=10;" parent="1" vertex="1">
          <mxGeometry x="158.5" y="377.5" width="35" height="35" as="geometry" />
        </mxCell>
        <mxCell id="ayehK-fuNoa_W2m06wCX-240" value="&lt;font style=&quot;font-size: 16px;&quot;&gt;0&lt;/font&gt;" style="whiteSpace=wrap;html=1;aspect=fixed;fillColor=#f8cecc;strokeColor=#D9635E;strokeWidth=2;rounded=1;glass=0;arcSize=10;" parent="1" vertex="1">
          <mxGeometry x="78.5" y="417.5" width="35" height="35" as="geometry" />
        </mxCell>
        <mxCell id="ayehK-fuNoa_W2m06wCX-241" value="&lt;font style=&quot;font-size: 16px;&quot;&gt;0&lt;/font&gt;" style="whiteSpace=wrap;html=1;aspect=fixed;fillColor=#f8cecc;strokeColor=#D9635E;strokeWidth=2;rounded=1;glass=0;arcSize=10;" parent="1" vertex="1">
          <mxGeometry x="118.5" y="417.5" width="35" height="35" as="geometry" />
        </mxCell>
        <mxCell id="ayehK-fuNoa_W2m06wCX-242" value="&lt;font style=&quot;font-size: 16px;&quot;&gt;&lt;b&gt;166&lt;/b&gt;&lt;/font&gt;" style="whiteSpace=wrap;html=1;aspect=fixed;strokeWidth=2;fillColor=#d5e8d4;strokeColor=#356A16;rounded=1;glass=0;arcSize=10;" parent="1" vertex="1">
          <mxGeometry x="158.5" y="417.5" width="35" height="35" as="geometry" />
        </mxCell>
        <mxCell id="ayehK-fuNoa_W2m06wCX-243" value="" style="group;rounded=1;glass=0;arcSize=10;" parent="1" vertex="1" connectable="0">
          <mxGeometry x="78.5" y="310.5" width="115" height="18" as="geometry" />
        </mxCell>
        <mxCell id="ayehK-fuNoa_W2m06wCX-244" value="&lt;font style=&quot;font-size: 14px;&quot;&gt;0&lt;/font&gt;" style="text;html=1;strokeColor=#6c8ebf;fillColor=#dae8fc;align=center;verticalAlign=middle;whiteSpace=wrap;rounded=1;strokeWidth=2;glass=0;arcSize=10;" parent="ayehK-fuNoa_W2m06wCX-243" vertex="1">
          <mxGeometry width="35" height="18" as="geometry" />
        </mxCell>
        <mxCell id="ayehK-fuNoa_W2m06wCX-245" value="&lt;font style=&quot;font-size: 14px;&quot;&gt;1&lt;/font&gt;" style="text;html=1;strokeColor=#6c8ebf;fillColor=#dae8fc;align=center;verticalAlign=middle;whiteSpace=wrap;rounded=1;strokeWidth=2;glass=0;arcSize=10;" parent="ayehK-fuNoa_W2m06wCX-243" vertex="1">
          <mxGeometry x="40" width="35" height="18" as="geometry" />
        </mxCell>
        <mxCell id="ayehK-fuNoa_W2m06wCX-246" value="&lt;font style=&quot;font-size: 14px;&quot;&gt;2&lt;/font&gt;" style="text;html=1;strokeColor=#6c8ebf;fillColor=#dae8fc;align=center;verticalAlign=middle;whiteSpace=wrap;rounded=1;strokeWidth=2;glass=0;arcSize=10;" parent="ayehK-fuNoa_W2m06wCX-243" vertex="1">
          <mxGeometry x="80" width="35" height="18" as="geometry" />
        </mxCell>
        <mxCell id="ayehK-fuNoa_W2m06wCX-247" value="" style="group;rounded=1;glass=0;arcSize=10;" parent="1" vertex="1" connectable="0">
          <mxGeometry x="50.5" y="337.5" width="18" height="115" as="geometry" />
        </mxCell>
        <mxCell id="ayehK-fuNoa_W2m06wCX-248" value="&lt;font style=&quot;font-size: 14px;&quot;&gt;0&lt;/font&gt;" style="text;html=1;strokeColor=#6c8ebf;fillColor=#dae8fc;align=center;verticalAlign=middle;whiteSpace=wrap;rounded=1;strokeWidth=2;glass=0;arcSize=10;" parent="ayehK-fuNoa_W2m06wCX-247" vertex="1">
          <mxGeometry width="18" height="35" as="geometry" />
        </mxCell>
        <mxCell id="ayehK-fuNoa_W2m06wCX-249" value="&lt;font style=&quot;font-size: 14px;&quot;&gt;1&lt;/font&gt;" style="text;html=1;strokeColor=#6c8ebf;fillColor=#dae8fc;align=center;verticalAlign=middle;whiteSpace=wrap;rounded=1;strokeWidth=2;glass=0;arcSize=10;" parent="ayehK-fuNoa_W2m06wCX-247" vertex="1">
          <mxGeometry y="40" width="18" height="35" as="geometry" />
        </mxCell>
        <mxCell id="ayehK-fuNoa_W2m06wCX-250" value="&lt;font style=&quot;font-size: 14px;&quot;&gt;2&lt;/font&gt;" style="text;html=1;strokeColor=#6c8ebf;fillColor=#dae8fc;align=center;verticalAlign=middle;whiteSpace=wrap;rounded=1;strokeWidth=2;glass=0;arcSize=10;" parent="ayehK-fuNoa_W2m06wCX-247" vertex="1">
          <mxGeometry y="80" width="18" height="35" as="geometry" />
        </mxCell>
        <mxCell id="ayehK-fuNoa_W2m06wCX-251" value="" style="endArrow=none;dashed=1;html=1;rounded=1;endSize=6;strokeWidth=1.5;strokeColor=#4D4D4D;" parent="1" edge="1">
          <mxGeometry width="50" height="50" relative="1" as="geometry">
            <mxPoint x="73.5" y="453.5" as="sourcePoint" />
            <mxPoint x="195.5" y="333.5" as="targetPoint" />
            <Array as="points">
              <mxPoint x="73.5" y="333.5" />
            </Array>
          </mxGeometry>
        </mxCell>
        <mxCell id="ayehK-fuNoa_W2m06wCX-252" value="&lt;b&gt;&lt;font style=&quot;font-size: 14px;&quot;&gt;IDEAL RESULT&lt;/font&gt;&lt;/b&gt;" style="text;html=1;strokeColor=#666666;fillColor=#f5f5f5;align=center;verticalAlign=middle;whiteSpace=wrap;rounded=1;fontColor=#333333;strokeWidth=2;" parent="1" vertex="1">
          <mxGeometry x="78.5" y="267.5" width="115" height="30" as="geometry" />
        </mxCell>
        <mxCell id="ayehK-fuNoa_W2m06wCX-253" value="&lt;font style=&quot;font-size: 14px;&quot;&gt;$$\text{F1-score : } 0.82$$&lt;br&gt;&lt;/font&gt;" style="text;html=1;strokeColor=none;fillColor=none;align=center;verticalAlign=middle;whiteSpace=wrap;rounded=0;" parent="1" vertex="1">
          <mxGeometry x="241.5" y="230" width="143" height="26.5" as="geometry" />
        </mxCell>
        <mxCell id="ayehK-fuNoa_W2m06wCX-254" value="&lt;font style=&quot;font-size: 14px;&quot;&gt;$$\text{F1-score : } 0.81$$&lt;br&gt;&lt;/font&gt;" style="text;html=1;strokeColor=none;fillColor=none;align=center;verticalAlign=middle;whiteSpace=wrap;rounded=0;" parent="1" vertex="1">
          <mxGeometry x="443" y="226.5" width="143" height="30" as="geometry" />
        </mxCell>
        <mxCell id="ayehK-fuNoa_W2m06wCX-255" value="&lt;font style=&quot;font-size: 14px;&quot;&gt;$$\text{F1-score : } \mathbf{0.84}$$&lt;br&gt;&lt;/font&gt;" style="text;html=1;strokeColor=none;fillColor=none;align=center;verticalAlign=middle;whiteSpace=wrap;rounded=0;" parent="1" vertex="1">
          <mxGeometry x="643" y="222.5" width="143" height="30" as="geometry" />
        </mxCell>
        <mxCell id="ayehK-fuNoa_W2m06wCX-256" value="&lt;font style=&quot;font-size: 14px;&quot;&gt;$$\text{F1-score : } 0.72$$&lt;br&gt;&lt;/font&gt;" style="text;html=1;strokeColor=none;fillColor=none;align=center;verticalAlign=middle;whiteSpace=wrap;rounded=0;" parent="1" vertex="1">
          <mxGeometry x="839.5" y="222.5" width="143" height="30" as="geometry" />
        </mxCell>
        <mxCell id="ayehK-fuNoa_W2m06wCX-257" value="&lt;font style=&quot;font-size: 14px;&quot;&gt;$$\text{F1-score : } 0.83$$&lt;br&gt;&lt;/font&gt;" style="text;html=1;strokeColor=none;fillColor=none;align=center;verticalAlign=middle;whiteSpace=wrap;rounded=0;" parent="1" vertex="1">
          <mxGeometry x="243.5" y="466.5" width="143" height="30" as="geometry" />
        </mxCell>
        <mxCell id="ayehK-fuNoa_W2m06wCX-258" value="&lt;font style=&quot;font-size: 14px;&quot;&gt;$$\text{F1-score : } 0.83$$&lt;br&gt;&lt;/font&gt;" style="text;html=1;strokeColor=none;fillColor=none;align=center;verticalAlign=middle;whiteSpace=wrap;rounded=0;" parent="1" vertex="1">
          <mxGeometry x="441" y="466.5" width="143" height="30" as="geometry" />
        </mxCell>
        <mxCell id="ayehK-fuNoa_W2m06wCX-259" value="&lt;font style=&quot;font-size: 14px;&quot;&gt;$$\text{F1-score : } 0.82$$&lt;br&gt;&lt;/font&gt;" style="text;html=1;strokeColor=none;fillColor=none;align=center;verticalAlign=middle;whiteSpace=wrap;rounded=0;" parent="1" vertex="1">
          <mxGeometry x="643" y="466.5" width="143" height="30" as="geometry" />
        </mxCell>
        <mxCell id="ayehK-fuNoa_W2m06wCX-260" value="&lt;font style=&quot;font-size: 14px;&quot;&gt;$$\text{F1-score : } 1$$&lt;br&gt;&lt;/font&gt;" style="text;html=1;strokeColor=none;fillColor=none;align=center;verticalAlign=middle;whiteSpace=wrap;rounded=0;" parent="1" vertex="1">
          <mxGeometry x="51" y="462.5" width="143" height="30" as="geometry" />
        </mxCell>
        <mxCell id="ayehK-fuNoa_W2m06wCX-261" value="&lt;font style=&quot;font-size: 16px;&quot;&gt;&lt;b&gt;92&lt;/b&gt;&lt;/font&gt;" style="whiteSpace=wrap;html=1;aspect=fixed;fillColor=#d5e8d4;strokeColor=#356a16;strokeWidth=2;rounded=1;glass=0;absoluteArcSize=0;arcSize=10;" parent="1" vertex="1">
          <mxGeometry x="871" y="341.5" width="35" height="35" as="geometry" />
        </mxCell>
        <mxCell id="ayehK-fuNoa_W2m06wCX-262" value="&lt;font style=&quot;font-size: 16px;&quot;&gt;10&lt;/font&gt;" style="whiteSpace=wrap;html=1;aspect=fixed;fillColor=#f8cecc;strokeColor=#D9635E;strokeWidth=2;rounded=1;glass=0;arcSize=10;" parent="1" vertex="1">
          <mxGeometry x="911" y="341.5" width="35" height="35" as="geometry" />
        </mxCell>
        <mxCell id="ayehK-fuNoa_W2m06wCX-263" value="&lt;font style=&quot;font-size: 16px;&quot;&gt;8&lt;/font&gt;" style="whiteSpace=wrap;html=1;aspect=fixed;fillColor=#f8cecc;strokeColor=#D9635E;strokeWidth=2;rounded=1;glass=0;arcSize=10;" parent="1" vertex="1">
          <mxGeometry x="951" y="341.5" width="35" height="35" as="geometry" />
        </mxCell>
        <mxCell id="ayehK-fuNoa_W2m06wCX-264" value="&lt;font style=&quot;font-size: 16px;&quot;&gt;4&lt;/font&gt;" style="whiteSpace=wrap;html=1;aspect=fixed;fillColor=#f8cecc;strokeColor=#D9635E;strokeWidth=2;rounded=1;glass=0;arcSize=10;" parent="1" vertex="1">
          <mxGeometry x="871" y="381.5" width="35" height="35" as="geometry" />
        </mxCell>
        <mxCell id="ayehK-fuNoa_W2m06wCX-265" value="&lt;font style=&quot;font-size: 16px;&quot;&gt;&lt;b&gt;119&lt;/b&gt;&lt;/font&gt;" style="whiteSpace=wrap;html=1;aspect=fixed;fillColor=#d5e8d4;strokeColor=#356A16;strokeWidth=2;rounded=1;glass=0;arcSize=10;" parent="1" vertex="1">
          <mxGeometry x="911" y="381.5" width="35" height="35" as="geometry" />
        </mxCell>
        <mxCell id="ayehK-fuNoa_W2m06wCX-266" value="&lt;font style=&quot;font-size: 16px;&quot;&gt;42&lt;/font&gt;" style="whiteSpace=wrap;html=1;aspect=fixed;fillColor=#f8cecc;strokeColor=#D9635E;strokeWidth=2;rounded=1;glass=0;arcSize=10;" parent="1" vertex="1">
          <mxGeometry x="951" y="381.5" width="35" height="35" as="geometry" />
        </mxCell>
        <mxCell id="ayehK-fuNoa_W2m06wCX-267" value="&lt;font style=&quot;font-size: 16px;&quot;&gt;1&lt;/font&gt;" style="whiteSpace=wrap;html=1;aspect=fixed;fillColor=#f8cecc;strokeColor=#D9635E;strokeWidth=2;rounded=1;glass=0;arcSize=10;" parent="1" vertex="1">
          <mxGeometry x="871" y="421.5" width="35" height="35" as="geometry" />
        </mxCell>
        <mxCell id="ayehK-fuNoa_W2m06wCX-268" value="&lt;font style=&quot;font-size: 16px;&quot;&gt;18&lt;/font&gt;" style="whiteSpace=wrap;html=1;aspect=fixed;fillColor=#f8cecc;strokeColor=#D9635E;strokeWidth=2;rounded=1;glass=0;arcSize=10;" parent="1" vertex="1">
          <mxGeometry x="911" y="421.5" width="35" height="35" as="geometry" />
        </mxCell>
        <mxCell id="ayehK-fuNoa_W2m06wCX-269" value="&lt;font style=&quot;font-size: 16px;&quot;&gt;&lt;b&gt;118&lt;/b&gt;&lt;/font&gt;" style="whiteSpace=wrap;html=1;aspect=fixed;strokeWidth=2;fillColor=#d5e8d4;strokeColor=#356A16;rounded=1;glass=0;arcSize=10;" parent="1" vertex="1">
          <mxGeometry x="951" y="421.5" width="35" height="35" as="geometry" />
        </mxCell>
        <mxCell id="ayehK-fuNoa_W2m06wCX-270" value="" style="group;rounded=1;glass=0;arcSize=10;" parent="1" vertex="1" connectable="0">
          <mxGeometry x="871" y="314.5" width="115" height="18" as="geometry" />
        </mxCell>
        <mxCell id="ayehK-fuNoa_W2m06wCX-271" value="&lt;font style=&quot;font-size: 14px;&quot;&gt;0&lt;/font&gt;" style="text;html=1;strokeColor=#6c8ebf;fillColor=#dae8fc;align=center;verticalAlign=middle;whiteSpace=wrap;rounded=1;strokeWidth=2;glass=0;arcSize=10;" parent="ayehK-fuNoa_W2m06wCX-270" vertex="1">
          <mxGeometry width="35" height="18" as="geometry" />
        </mxCell>
        <mxCell id="ayehK-fuNoa_W2m06wCX-272" value="&lt;font style=&quot;font-size: 14px;&quot;&gt;1&lt;/font&gt;" style="text;html=1;strokeColor=#6c8ebf;fillColor=#dae8fc;align=center;verticalAlign=middle;whiteSpace=wrap;rounded=1;strokeWidth=2;glass=0;arcSize=10;" parent="ayehK-fuNoa_W2m06wCX-270" vertex="1">
          <mxGeometry x="40" width="35" height="18" as="geometry" />
        </mxCell>
        <mxCell id="ayehK-fuNoa_W2m06wCX-273" value="&lt;font style=&quot;font-size: 14px;&quot;&gt;2&lt;/font&gt;" style="text;html=1;strokeColor=#6c8ebf;fillColor=#dae8fc;align=center;verticalAlign=middle;whiteSpace=wrap;rounded=1;strokeWidth=2;glass=0;arcSize=10;" parent="ayehK-fuNoa_W2m06wCX-270" vertex="1">
          <mxGeometry x="80" width="35" height="18" as="geometry" />
        </mxCell>
        <mxCell id="ayehK-fuNoa_W2m06wCX-274" value="" style="group;rounded=1;glass=0;arcSize=10;" parent="1" vertex="1" connectable="0">
          <mxGeometry x="843" y="341.5" width="18" height="115" as="geometry" />
        </mxCell>
        <mxCell id="ayehK-fuNoa_W2m06wCX-275" value="&lt;font style=&quot;font-size: 14px;&quot;&gt;0&lt;/font&gt;" style="text;html=1;strokeColor=#6c8ebf;fillColor=#dae8fc;align=center;verticalAlign=middle;whiteSpace=wrap;rounded=1;strokeWidth=2;glass=0;arcSize=10;" parent="ayehK-fuNoa_W2m06wCX-274" vertex="1">
          <mxGeometry width="18" height="35" as="geometry" />
        </mxCell>
        <mxCell id="ayehK-fuNoa_W2m06wCX-276" value="&lt;font style=&quot;font-size: 14px;&quot;&gt;1&lt;/font&gt;" style="text;html=1;strokeColor=#6c8ebf;fillColor=#dae8fc;align=center;verticalAlign=middle;whiteSpace=wrap;rounded=1;strokeWidth=2;glass=0;arcSize=10;" parent="ayehK-fuNoa_W2m06wCX-274" vertex="1">
          <mxGeometry y="40" width="18" height="35" as="geometry" />
        </mxCell>
        <mxCell id="ayehK-fuNoa_W2m06wCX-277" value="&lt;font style=&quot;font-size: 14px;&quot;&gt;2&lt;/font&gt;" style="text;html=1;strokeColor=#6c8ebf;fillColor=#dae8fc;align=center;verticalAlign=middle;whiteSpace=wrap;rounded=1;strokeWidth=2;glass=0;arcSize=10;" parent="ayehK-fuNoa_W2m06wCX-274" vertex="1">
          <mxGeometry y="80" width="18" height="35" as="geometry" />
        </mxCell>
        <mxCell id="ayehK-fuNoa_W2m06wCX-278" value="" style="endArrow=none;dashed=1;html=1;rounded=1;endSize=6;strokeWidth=1.5;strokeColor=#4D4D4D;" parent="1" edge="1">
          <mxGeometry width="50" height="50" relative="1" as="geometry">
            <mxPoint x="866" y="457.5" as="sourcePoint" />
            <mxPoint x="988" y="337.5" as="targetPoint" />
            <Array as="points">
              <mxPoint x="866" y="337.5" />
            </Array>
          </mxGeometry>
        </mxCell>
        <mxCell id="ayehK-fuNoa_W2m06wCX-279" value="&lt;b&gt;&lt;font style=&quot;font-size: 14px;&quot;&gt;Subtyping-Staging-Purity-FGA&lt;br&gt;&lt;/font&gt;&lt;/b&gt;" style="text;html=1;strokeColor=#666666;fillColor=#f5f5f5;align=center;verticalAlign=middle;whiteSpace=wrap;rounded=1;fontColor=#333333;strokeWidth=2;" parent="1" vertex="1">
          <mxGeometry x="854" y="256.5" width="132" height="43.5" as="geometry" />
        </mxCell>
        <mxCell id="ayehK-fuNoa_W2m06wCX-280" value="&lt;font style=&quot;font-size: 16px;&quot;&gt;&lt;b&gt;83&lt;span style=&quot;white-space: pre;&quot;&gt;&#x9;&lt;/span&gt;&lt;/b&gt;&lt;/font&gt;" style="whiteSpace=wrap;html=1;aspect=fixed;fillColor=#d5e8d4;strokeColor=#356a16;strokeWidth=2;rounded=1;glass=0;absoluteArcSize=0;arcSize=10;" parent="1" vertex="1">
          <mxGeometry x="871" y="341.5" width="35" height="35" as="geometry" />
        </mxCell>
        <mxCell id="ayehK-fuNoa_W2m06wCX-281" value="&lt;font style=&quot;font-size: 16px;&quot;&gt;8&lt;/font&gt;" style="whiteSpace=wrap;html=1;aspect=fixed;fillColor=#f8cecc;strokeColor=#D9635E;strokeWidth=2;rounded=1;glass=0;arcSize=10;" parent="1" vertex="1">
          <mxGeometry x="911" y="341.5" width="35" height="35" as="geometry" />
        </mxCell>
        <mxCell id="ayehK-fuNoa_W2m06wCX-282" value="&lt;span style=&quot;font-size: 16px;&quot;&gt;1&lt;/span&gt;" style="whiteSpace=wrap;html=1;aspect=fixed;fillColor=#f8cecc;strokeColor=#D9635E;strokeWidth=2;rounded=1;glass=0;arcSize=10;" parent="1" vertex="1">
          <mxGeometry x="951" y="341.5" width="35" height="35" as="geometry" />
        </mxCell>
        <mxCell id="ayehK-fuNoa_W2m06wCX-283" value="&lt;font style=&quot;font-size: 16px;&quot;&gt;5&lt;/font&gt;" style="whiteSpace=wrap;html=1;aspect=fixed;fillColor=#f8cecc;strokeColor=#D9635E;strokeWidth=2;rounded=1;glass=0;arcSize=10;" parent="1" vertex="1">
          <mxGeometry x="871" y="381.5" width="35" height="35" as="geometry" />
        </mxCell>
        <mxCell id="ayehK-fuNoa_W2m06wCX-284" value="&lt;font style=&quot;font-size: 16px;&quot;&gt;&lt;b&gt;128&lt;/b&gt;&lt;/font&gt;" style="whiteSpace=wrap;html=1;aspect=fixed;fillColor=#d5e8d4;strokeColor=#356A16;strokeWidth=2;rounded=1;glass=0;arcSize=10;" parent="1" vertex="1">
          <mxGeometry x="911" y="381.5" width="35" height="35" as="geometry" />
        </mxCell>
        <mxCell id="ayehK-fuNoa_W2m06wCX-285" value="&lt;font style=&quot;font-size: 16px;&quot;&gt;13&lt;/font&gt;" style="whiteSpace=wrap;html=1;aspect=fixed;fillColor=#f8cecc;strokeColor=#D9635E;strokeWidth=2;rounded=1;glass=0;arcSize=10;" parent="1" vertex="1">
          <mxGeometry x="951" y="381.5" width="35" height="35" as="geometry" />
        </mxCell>
        <mxCell id="ayehK-fuNoa_W2m06wCX-286" value="&lt;font style=&quot;font-size: 16px;&quot;&gt;2&lt;/font&gt;" style="whiteSpace=wrap;html=1;aspect=fixed;fillColor=#f8cecc;strokeColor=#D9635E;strokeWidth=2;rounded=1;glass=0;arcSize=10;" parent="1" vertex="1">
          <mxGeometry x="871" y="421.5" width="35" height="35" as="geometry" />
        </mxCell>
        <mxCell id="ayehK-fuNoa_W2m06wCX-287" value="&lt;font style=&quot;font-size: 16px;&quot;&gt;47&lt;/font&gt;" style="whiteSpace=wrap;html=1;aspect=fixed;fillColor=#f8cecc;strokeColor=#D9635E;strokeWidth=2;rounded=1;glass=0;arcSize=10;" parent="1" vertex="1">
          <mxGeometry x="911" y="421.5" width="35" height="35" as="geometry" />
        </mxCell>
        <mxCell id="ayehK-fuNoa_W2m06wCX-288" value="&lt;font style=&quot;font-size: 16px;&quot;&gt;&lt;b&gt;117&lt;/b&gt;&lt;/font&gt;" style="whiteSpace=wrap;html=1;aspect=fixed;strokeWidth=2;fillColor=#d5e8d4;strokeColor=#356A16;rounded=1;glass=0;arcSize=10;" parent="1" vertex="1">
          <mxGeometry x="951" y="421.5" width="35" height="35" as="geometry" />
        </mxCell>
        <mxCell id="ayehK-fuNoa_W2m06wCX-289" value="" style="group;rounded=1;glass=0;arcSize=10;" parent="1" vertex="1" connectable="0">
          <mxGeometry x="843" y="341.5" width="18" height="115" as="geometry" />
        </mxCell>
        <mxCell id="ayehK-fuNoa_W2m06wCX-290" value="&lt;font style=&quot;font-size: 14px;&quot;&gt;0&lt;/font&gt;" style="text;html=1;strokeColor=#6c8ebf;fillColor=#dae8fc;align=center;verticalAlign=middle;whiteSpace=wrap;rounded=1;strokeWidth=2;glass=0;arcSize=10;" parent="ayehK-fuNoa_W2m06wCX-289" vertex="1">
          <mxGeometry width="18" height="35" as="geometry" />
        </mxCell>
        <mxCell id="ayehK-fuNoa_W2m06wCX-291" value="&lt;font style=&quot;font-size: 14px;&quot;&gt;1&lt;/font&gt;" style="text;html=1;strokeColor=#6c8ebf;fillColor=#dae8fc;align=center;verticalAlign=middle;whiteSpace=wrap;rounded=1;strokeWidth=2;glass=0;arcSize=10;" parent="ayehK-fuNoa_W2m06wCX-289" vertex="1">
          <mxGeometry y="40" width="18" height="35" as="geometry" />
        </mxCell>
        <mxCell id="ayehK-fuNoa_W2m06wCX-292" value="&lt;font style=&quot;font-size: 14px;&quot;&gt;2&lt;/font&gt;" style="text;html=1;strokeColor=#6c8ebf;fillColor=#dae8fc;align=center;verticalAlign=middle;whiteSpace=wrap;rounded=1;strokeWidth=2;glass=0;arcSize=10;" parent="ayehK-fuNoa_W2m06wCX-289" vertex="1">
          <mxGeometry y="80" width="18" height="35" as="geometry" />
        </mxCell>
        <mxCell id="ayehK-fuNoa_W2m06wCX-293" value="" style="endArrow=none;dashed=1;html=1;rounded=1;endSize=6;strokeWidth=1.5;strokeColor=#4D4D4D;" parent="1" edge="1">
          <mxGeometry width="50" height="50" relative="1" as="geometry">
            <mxPoint x="866" y="457.5" as="sourcePoint" />
            <mxPoint x="988" y="337.5" as="targetPoint" />
            <Array as="points">
              <mxPoint x="866" y="337.5" />
            </Array>
          </mxGeometry>
        </mxCell>
        <mxCell id="ayehK-fuNoa_W2m06wCX-294" value="&lt;font style=&quot;font-size: 16px;&quot;&gt;&lt;b&gt;86&lt;/b&gt;&lt;/font&gt;" style="whiteSpace=wrap;html=1;aspect=fixed;fillColor=#d5e8d4;strokeColor=#356a16;strokeWidth=2;rounded=1;glass=0;absoluteArcSize=0;arcSize=10;" parent="1" vertex="1">
          <mxGeometry x="268" y="342.5" width="35" height="35" as="geometry" />
        </mxCell>
        <mxCell id="ayehK-fuNoa_W2m06wCX-295" value="&lt;font style=&quot;font-size: 16px;&quot;&gt;5&lt;/font&gt;" style="whiteSpace=wrap;html=1;aspect=fixed;fillColor=#f8cecc;strokeColor=#D9635E;strokeWidth=2;rounded=1;glass=0;arcSize=10;" parent="1" vertex="1">
          <mxGeometry x="308" y="342.5" width="35" height="35" as="geometry" />
        </mxCell>
        <mxCell id="ayehK-fuNoa_W2m06wCX-296" value="&lt;font style=&quot;font-size: 16px;&quot;&gt;1&lt;/font&gt;" style="whiteSpace=wrap;html=1;aspect=fixed;fillColor=#f8cecc;strokeColor=#D9635E;strokeWidth=2;rounded=1;glass=0;arcSize=10;" parent="1" vertex="1">
          <mxGeometry x="348" y="342.5" width="35" height="35" as="geometry" />
        </mxCell>
        <mxCell id="ayehK-fuNoa_W2m06wCX-297" value="&lt;font style=&quot;font-size: 16px;&quot;&gt;6&lt;/font&gt;" style="whiteSpace=wrap;html=1;aspect=fixed;fillColor=#f8cecc;strokeColor=#D9635E;strokeWidth=2;rounded=1;glass=0;arcSize=10;" parent="1" vertex="1">
          <mxGeometry x="268" y="382.5" width="35" height="35" as="geometry" />
        </mxCell>
        <mxCell id="ayehK-fuNoa_W2m06wCX-298" value="&lt;font style=&quot;font-size: 16px;&quot;&gt;&lt;b&gt;109&lt;/b&gt;&lt;/font&gt;" style="whiteSpace=wrap;html=1;aspect=fixed;fillColor=#d5e8d4;strokeColor=#356A16;strokeWidth=2;rounded=1;glass=0;arcSize=10;" parent="1" vertex="1">
          <mxGeometry x="308" y="382.5" width="35" height="35" as="geometry" />
        </mxCell>
        <mxCell id="ayehK-fuNoa_W2m06wCX-299" value="&lt;font style=&quot;font-size: 16px;&quot;&gt;31&lt;/font&gt;" style="whiteSpace=wrap;html=1;aspect=fixed;fillColor=#f8cecc;strokeColor=#D9635E;strokeWidth=2;rounded=1;glass=0;arcSize=10;" parent="1" vertex="1">
          <mxGeometry x="348" y="382.5" width="35" height="35" as="geometry" />
        </mxCell>
        <mxCell id="ayehK-fuNoa_W2m06wCX-300" value="&lt;font style=&quot;font-size: 16px;&quot;&gt;5&lt;/font&gt;" style="whiteSpace=wrap;html=1;aspect=fixed;fillColor=#f8cecc;strokeColor=#D9635E;strokeWidth=2;rounded=1;glass=0;arcSize=10;" parent="1" vertex="1">
          <mxGeometry x="268" y="422.5" width="35" height="35" as="geometry" />
        </mxCell>
        <mxCell id="ayehK-fuNoa_W2m06wCX-301" value="&lt;font style=&quot;font-size: 16px;&quot;&gt;24&lt;/font&gt;" style="whiteSpace=wrap;html=1;aspect=fixed;fillColor=#f8cecc;strokeColor=#D9635E;strokeWidth=2;rounded=1;glass=0;arcSize=10;" parent="1" vertex="1">
          <mxGeometry x="308" y="422.5" width="35" height="35" as="geometry" />
        </mxCell>
        <mxCell id="ayehK-fuNoa_W2m06wCX-302" value="&lt;font style=&quot;font-size: 16px;&quot;&gt;&lt;b&gt;137&lt;/b&gt;&lt;/font&gt;" style="whiteSpace=wrap;html=1;aspect=fixed;strokeWidth=2;fillColor=#d5e8d4;strokeColor=#356A16;rounded=1;glass=0;arcSize=10;" parent="1" vertex="1">
          <mxGeometry x="348" y="422.5" width="35" height="35" as="geometry" />
        </mxCell>
        <mxCell id="ayehK-fuNoa_W2m06wCX-303" value="" style="group;rounded=1;glass=0;arcSize=10;" parent="1" vertex="1" connectable="0">
          <mxGeometry x="268" y="315.5" width="115" height="18" as="geometry" />
        </mxCell>
        <mxCell id="ayehK-fuNoa_W2m06wCX-304" value="&lt;font style=&quot;font-size: 14px;&quot;&gt;0&lt;/font&gt;" style="text;html=1;strokeColor=#6c8ebf;fillColor=#dae8fc;align=center;verticalAlign=middle;whiteSpace=wrap;rounded=1;strokeWidth=2;glass=0;arcSize=10;" parent="ayehK-fuNoa_W2m06wCX-303" vertex="1">
          <mxGeometry width="35" height="18" as="geometry" />
        </mxCell>
        <mxCell id="ayehK-fuNoa_W2m06wCX-305" value="&lt;font style=&quot;font-size: 14px;&quot;&gt;1&lt;/font&gt;" style="text;html=1;strokeColor=#6c8ebf;fillColor=#dae8fc;align=center;verticalAlign=middle;whiteSpace=wrap;rounded=1;strokeWidth=2;glass=0;arcSize=10;" parent="ayehK-fuNoa_W2m06wCX-303" vertex="1">
          <mxGeometry x="40" width="35" height="18" as="geometry" />
        </mxCell>
        <mxCell id="ayehK-fuNoa_W2m06wCX-306" value="&lt;font style=&quot;font-size: 14px;&quot;&gt;2&lt;/font&gt;" style="text;html=1;strokeColor=#6c8ebf;fillColor=#dae8fc;align=center;verticalAlign=middle;whiteSpace=wrap;rounded=1;strokeWidth=2;glass=0;arcSize=10;" parent="ayehK-fuNoa_W2m06wCX-303" vertex="1">
          <mxGeometry x="80" width="35" height="18" as="geometry" />
        </mxCell>
        <mxCell id="ayehK-fuNoa_W2m06wCX-307" value="" style="group;rounded=1;glass=0;arcSize=10;" parent="1" vertex="1" connectable="0">
          <mxGeometry x="240" y="342.5" width="18" height="115" as="geometry" />
        </mxCell>
        <mxCell id="ayehK-fuNoa_W2m06wCX-308" value="&lt;font style=&quot;font-size: 14px;&quot;&gt;0&lt;/font&gt;" style="text;html=1;strokeColor=#6c8ebf;fillColor=#dae8fc;align=center;verticalAlign=middle;whiteSpace=wrap;rounded=1;strokeWidth=2;glass=0;arcSize=10;" parent="ayehK-fuNoa_W2m06wCX-307" vertex="1">
          <mxGeometry width="18" height="35" as="geometry" />
        </mxCell>
        <mxCell id="ayehK-fuNoa_W2m06wCX-309" value="&lt;font style=&quot;font-size: 14px;&quot;&gt;1&lt;/font&gt;" style="text;html=1;strokeColor=#6c8ebf;fillColor=#dae8fc;align=center;verticalAlign=middle;whiteSpace=wrap;rounded=1;strokeWidth=2;glass=0;arcSize=10;" parent="ayehK-fuNoa_W2m06wCX-307" vertex="1">
          <mxGeometry y="40" width="18" height="35" as="geometry" />
        </mxCell>
        <mxCell id="ayehK-fuNoa_W2m06wCX-310" value="&lt;font style=&quot;font-size: 14px;&quot;&gt;2&lt;/font&gt;" style="text;html=1;strokeColor=#6c8ebf;fillColor=#dae8fc;align=center;verticalAlign=middle;whiteSpace=wrap;rounded=1;strokeWidth=2;glass=0;arcSize=10;" parent="ayehK-fuNoa_W2m06wCX-307" vertex="1">
          <mxGeometry y="80" width="18" height="35" as="geometry" />
        </mxCell>
        <mxCell id="ayehK-fuNoa_W2m06wCX-311" value="" style="endArrow=none;dashed=1;html=1;rounded=1;endSize=6;strokeWidth=1.5;strokeColor=#4D4D4D;" parent="1" edge="1">
          <mxGeometry width="50" height="50" relative="1" as="geometry">
            <mxPoint x="263" y="458.5" as="sourcePoint" />
            <mxPoint x="385.5" y="338.5" as="targetPoint" />
            <Array as="points">
              <mxPoint x="263.5" y="338.5" />
            </Array>
          </mxGeometry>
        </mxCell>
        <mxCell id="ayehK-fuNoa_W2m06wCX-312" value="&lt;font style=&quot;font-size: 16px;&quot;&gt;&lt;b&gt;85&lt;/b&gt;&lt;/font&gt;" style="whiteSpace=wrap;html=1;aspect=fixed;fillColor=#d5e8d4;strokeColor=#356a16;strokeWidth=2;rounded=1;glass=0;absoluteArcSize=0;arcSize=10;" parent="1" vertex="1">
          <mxGeometry x="869" y="94.5" width="35" height="35" as="geometry" />
        </mxCell>
        <mxCell id="ayehK-fuNoa_W2m06wCX-313" value="&lt;font style=&quot;font-size: 16px;&quot;&gt;7&lt;/font&gt;" style="whiteSpace=wrap;html=1;aspect=fixed;fillColor=#f8cecc;strokeColor=#D9635E;strokeWidth=2;rounded=1;glass=0;arcSize=10;" parent="1" vertex="1">
          <mxGeometry x="909" y="94.5" width="35" height="35" as="geometry" />
        </mxCell>
        <mxCell id="ayehK-fuNoa_W2m06wCX-314" value="&lt;font style=&quot;font-size: 16px;&quot;&gt;0&lt;/font&gt;" style="whiteSpace=wrap;html=1;aspect=fixed;fillColor=#f8cecc;strokeColor=#D9635E;strokeWidth=2;rounded=1;glass=0;arcSize=10;" parent="1" vertex="1">
          <mxGeometry x="949" y="94.5" width="35" height="35" as="geometry" />
        </mxCell>
        <mxCell id="ayehK-fuNoa_W2m06wCX-315" value="&lt;font style=&quot;font-size: 16px;&quot;&gt;6&lt;/font&gt;" style="whiteSpace=wrap;html=1;aspect=fixed;fillColor=#f8cecc;strokeColor=#D9635E;strokeWidth=2;rounded=1;glass=0;arcSize=10;" parent="1" vertex="1">
          <mxGeometry x="869" y="134.5" width="35" height="35" as="geometry" />
        </mxCell>
        <mxCell id="ayehK-fuNoa_W2m06wCX-316" value="&lt;font style=&quot;font-size: 16px;&quot;&gt;&lt;b&gt;113&lt;/b&gt;&lt;/font&gt;" style="whiteSpace=wrap;html=1;aspect=fixed;fillColor=#d5e8d4;strokeColor=#356A16;strokeWidth=2;rounded=1;glass=0;arcSize=10;" parent="1" vertex="1">
          <mxGeometry x="909" y="134.5" width="35" height="35" as="geometry" />
        </mxCell>
        <mxCell id="ayehK-fuNoa_W2m06wCX-317" value="&lt;font style=&quot;font-size: 16px;&quot;&gt;27&lt;/font&gt;" style="whiteSpace=wrap;html=1;aspect=fixed;fillColor=#f8cecc;strokeColor=#D9635E;strokeWidth=2;rounded=1;glass=0;arcSize=10;" parent="1" vertex="1">
          <mxGeometry x="949" y="134.5" width="35" height="35" as="geometry" />
        </mxCell>
        <mxCell id="ayehK-fuNoa_W2m06wCX-318" value="&lt;font style=&quot;font-size: 16px;&quot;&gt;4&lt;/font&gt;" style="whiteSpace=wrap;html=1;aspect=fixed;fillColor=#f8cecc;strokeColor=#D9635E;strokeWidth=2;rounded=1;glass=0;arcSize=10;" parent="1" vertex="1">
          <mxGeometry x="869" y="174.5" width="35" height="35" as="geometry" />
        </mxCell>
        <mxCell id="ayehK-fuNoa_W2m06wCX-319" value="&lt;font style=&quot;font-size: 16px;&quot;&gt;36&lt;/font&gt;" style="whiteSpace=wrap;html=1;aspect=fixed;fillColor=#f8cecc;strokeColor=#D9635E;strokeWidth=2;rounded=1;glass=0;arcSize=10;" parent="1" vertex="1">
          <mxGeometry x="909" y="174.5" width="35" height="35" as="geometry" />
        </mxCell>
        <mxCell id="ayehK-fuNoa_W2m06wCX-320" value="&lt;font style=&quot;font-size: 16px;&quot;&gt;&lt;b&gt;126&lt;/b&gt;&lt;/font&gt;" style="whiteSpace=wrap;html=1;aspect=fixed;strokeWidth=2;fillColor=#d5e8d4;strokeColor=#356A16;rounded=1;glass=0;arcSize=10;" parent="1" vertex="1">
          <mxGeometry x="949" y="174.5" width="35" height="35" as="geometry" />
        </mxCell>
        <mxCell id="ayehK-fuNoa_W2m06wCX-321" value="" style="group;rounded=1;glass=0;arcSize=10;" parent="1" vertex="1" connectable="0">
          <mxGeometry x="869" y="67.5" width="115" height="18" as="geometry" />
        </mxCell>
        <mxCell id="ayehK-fuNoa_W2m06wCX-322" value="&lt;font style=&quot;font-size: 14px;&quot;&gt;0&lt;/font&gt;" style="text;html=1;strokeColor=#6c8ebf;fillColor=#dae8fc;align=center;verticalAlign=middle;whiteSpace=wrap;rounded=1;strokeWidth=2;glass=0;arcSize=10;" parent="ayehK-fuNoa_W2m06wCX-321" vertex="1">
          <mxGeometry width="35" height="18" as="geometry" />
        </mxCell>
        <mxCell id="ayehK-fuNoa_W2m06wCX-323" value="&lt;font style=&quot;font-size: 14px;&quot;&gt;1&lt;/font&gt;" style="text;html=1;strokeColor=#6c8ebf;fillColor=#dae8fc;align=center;verticalAlign=middle;whiteSpace=wrap;rounded=1;strokeWidth=2;glass=0;arcSize=10;" parent="ayehK-fuNoa_W2m06wCX-321" vertex="1">
          <mxGeometry x="40" width="35" height="18" as="geometry" />
        </mxCell>
        <mxCell id="ayehK-fuNoa_W2m06wCX-324" value="&lt;font style=&quot;font-size: 14px;&quot;&gt;2&lt;/font&gt;" style="text;html=1;strokeColor=#6c8ebf;fillColor=#dae8fc;align=center;verticalAlign=middle;whiteSpace=wrap;rounded=1;strokeWidth=2;glass=0;arcSize=10;" parent="ayehK-fuNoa_W2m06wCX-321" vertex="1">
          <mxGeometry x="80" width="35" height="18" as="geometry" />
        </mxCell>
        <mxCell id="ayehK-fuNoa_W2m06wCX-325" value="" style="group;rounded=1;glass=0;arcSize=10;" parent="1" vertex="1" connectable="0">
          <mxGeometry x="841" y="94.5" width="18" height="115" as="geometry" />
        </mxCell>
        <mxCell id="ayehK-fuNoa_W2m06wCX-326" value="&lt;font style=&quot;font-size: 14px;&quot;&gt;0&lt;/font&gt;" style="text;html=1;strokeColor=#6c8ebf;fillColor=#dae8fc;align=center;verticalAlign=middle;whiteSpace=wrap;rounded=1;strokeWidth=2;glass=0;arcSize=10;" parent="ayehK-fuNoa_W2m06wCX-325" vertex="1">
          <mxGeometry width="18" height="35" as="geometry" />
        </mxCell>
        <mxCell id="ayehK-fuNoa_W2m06wCX-327" value="&lt;font style=&quot;font-size: 14px;&quot;&gt;1&lt;/font&gt;" style="text;html=1;strokeColor=#6c8ebf;fillColor=#dae8fc;align=center;verticalAlign=middle;whiteSpace=wrap;rounded=1;strokeWidth=2;glass=0;arcSize=10;" parent="ayehK-fuNoa_W2m06wCX-325" vertex="1">
          <mxGeometry y="40" width="18" height="35" as="geometry" />
        </mxCell>
        <mxCell id="ayehK-fuNoa_W2m06wCX-328" value="&lt;font style=&quot;font-size: 14px;&quot;&gt;2&lt;/font&gt;" style="text;html=1;strokeColor=#6c8ebf;fillColor=#dae8fc;align=center;verticalAlign=middle;whiteSpace=wrap;rounded=1;strokeWidth=2;glass=0;arcSize=10;" parent="ayehK-fuNoa_W2m06wCX-325" vertex="1">
          <mxGeometry y="80" width="18" height="35" as="geometry" />
        </mxCell>
        <mxCell id="ayehK-fuNoa_W2m06wCX-329" value="" style="endArrow=none;dashed=1;html=1;rounded=1;endSize=6;strokeWidth=1.5;strokeColor=#4D4D4D;" parent="1" edge="1">
          <mxGeometry width="50" height="50" relative="1" as="geometry">
            <mxPoint x="864" y="210.5" as="sourcePoint" />
            <mxPoint x="986" y="90.5" as="targetPoint" />
            <Array as="points">
              <mxPoint x="864" y="90.5" />
            </Array>
          </mxGeometry>
        </mxCell>
        <mxCell id="ayehK-fuNoa_W2m06wCX-330" value="&lt;font style=&quot;font-size: 14px;&quot;&gt;$$\text{F1-score : } 0.83$$&lt;br&gt;&lt;/font&gt;" style="text;html=1;strokeColor=none;fillColor=none;align=center;verticalAlign=middle;whiteSpace=wrap;rounded=0;" parent="1" vertex="1">
          <mxGeometry x="843" y="466.5" width="143" height="30" as="geometry" />
        </mxCell>
        <mxCell id="RypQbaG6j4MT_vhLn9dV-3" value="&lt;div style=&quot;&quot;&gt;&lt;div style=&quot;text-align: justify;&quot;&gt;&lt;b style=&quot;background-color: initial; font-size: 14px;&quot;&gt;T1: Purity&lt;span style=&quot;white-space: pre;&quot;&gt;&#x9;&lt;/span&gt;&lt;/b&gt;&lt;/div&gt;&lt;b style=&quot;font-size: 14px; background-color: initial;&quot;&gt;&lt;div style=&quot;text-align: justify;&quot;&gt;&lt;b style=&quot;background-color: initial;&quot;&gt;T2: FGA&lt;/b&gt;&lt;/div&gt;&lt;/b&gt;&lt;/div&gt;&lt;span style=&quot;font-size: 14px;&quot;&gt;&lt;div style=&quot;text-align: justify;&quot;&gt;&lt;b style=&quot;background-color: initial;&quot;&gt;T3: Staging&lt;/b&gt;&lt;/div&gt;&lt;b&gt;&lt;div style=&quot;text-align: justify;&quot;&gt;&lt;b style=&quot;background-color: initial;&quot;&gt;T4: Subtyping&amp;nbsp;&lt;/b&gt;&lt;/div&gt;&lt;/b&gt;&lt;/span&gt;" style="text;html=1;strokeColor=#6c8ebf;fillColor=#dae8fc;align=center;verticalAlign=middle;whiteSpace=wrap;rounded=1;strokeWidth=2;glass=0;arcSize=10;" parent="1" vertex="1">
          <mxGeometry x="383" y="720" width="117" height="90" as="geometry" />
        </mxCell>
      </root>
    </mxGraphModel>
  </diagram>
</mxfile>
